<svg xmlns="http://www.w3.org/2000/svg" viewBox="0 0 1920 673" style="enable-background:new 0 0 1920 673" xml:space="preserve"><path style="fill:#f4c29a" d="M0 0h1920v673H0z"/><path d="M1047.5 277.8c-19.3 0-33.7 9.5-33.7 32.3 0 17.2 9.5 29.1 32.7 29.1 19.6 0 33-11.6 33-29.8-.1-20.7-12-31.6-32-31.6zm-38.7 161.1c-4.6 5.6-9.1 11.6-9.1 18.6 0 14 17.9 18.3 42.5 18.3 20.4 0 48.1-1.4 48.1-20.4 0-11.3-13.3-11.9-30.2-13l-51.3-3.5zm103.9-160.1c6.3 8.1 13 19.3 13 35.5 0 39-30.5 61.8-74.8 61.8-11.2 0-21.4-1.4-27.7-3.2l-11.6 18.6 34.4 2.1c60.7 3.9 96.5 5.6 96.5 52.3 0 40.4-35.4 63.2-96.5 63.2-63.5 0-87.8-16.1-87.8-43.9 0-15.8 7-24.2 19.3-35.8-11.6-4.9-15.4-13.7-15.4-23.2 0-7.7 3.9-14.7 10.2-21.4 6.3-6.7 13.3-13.3 21.8-21.1-17.2-8.4-30.2-26.7-30.2-52.7 0-40.4 26.7-68.1 80.4-68.1 15.1 0 24.2 1.4 32.3 3.5h68.5v29.8l-32.4 2.6m94.1-63.8c-20 0-31.6-11.6-31.6-31.6s11.6-30.9 31.6-30.9c20.4 0 31.9 10.9 31.9 30.9.1 20-11.5 31.6-31.9 31.6zm-45.3 211v-27.7l17.9-2.5c4.9-.7 5.6-1.8 5.6-7V285.6c0-3.9-1-6.3-4.6-7.4l-19-6.7 3.9-28.4h72.7v145.7c0 5.6.3 6.3 5.6 7l17.9 2.5V426h-100m238.9-13.6c-15.1 7.4-37.2 14-57.2 14-41.8 0-57.6-16.8-57.6-56.5v-92c0-2.1 0-3.5-2.8-3.5h-24.6v-31.2c30.9-3.5 43.2-19 47-57.2h33.4v49.9c0 2.4 0 3.5 2.8 3.5h49.5v35.1h-52.3v83.9c0 20.7 4.9 28.8 23.9 28.8 9.8 0 20-2.5 28.4-5.6l9.5 30.8" style="fill:#413000"/><path d="M880.3 320.3 719.8 159.8c-9.2-9.2-24.2-9.2-33.5 0L653 193.1l42.3 42.3c9.8-3.3 21.1-1.1 28.9 6.7 7.6 7.6 10.2 18.9 6.7 29.1l40.7 40.7c9.9-3.4 21.2-1.2 29.1 6.7 11 11 11 28.8 0 39.8-11 11-28.8 11-39.8 0-8.1-8-10.5-20.1-6.1-30.7l-38-38v100c2.8 1.4 5.3 3.2 7.4 5.3 11 11 11 28.8 0 39.8-11 11-28.8 11-39.8 0-11-11-11-28.8 0-39.8 2.6-2.6 5.8-4.7 9.2-6.1V288.1c-3.5-1.4-6.6-3.5-9.2-6.1-8.1-8.1-10.5-20.3-6.1-30.8l-41.7-41.7-110.1 110c-9.2 9.2-9.2 24.2 0 33.5L687 513.5c9.2 9.2 24.2 9.2 33.5 0l159.8-159.7c9.2-9.3 9.2-24.3 0-33.5" style="fill:#f05133"/></svg>