<svg xmlns="http://www.w3.org/2000/svg" viewBox="0 0 1920 673" style="enable-background:new 0 0 1920 673" xml:space="preserve"><path style="fill:#1e3e68" d="M0 0h1920v673H0z"/><path d="m554.73 375.27 32.23-106.93h32.62l-49.51 142.19H539.5l-49.32-142.19h32.52l32.03 106.93zm76.17-97.75c0-4.23 1.42-7.71 4.25-10.45s6.69-4.1 11.57-4.1c4.82 0 8.66 1.37 11.52 4.1 2.86 2.73 4.3 6.22 4.3 10.45 0 4.3-1.45 7.81-4.35 10.55-2.9 2.73-6.72 4.1-11.47 4.1-4.75 0-8.58-1.37-11.47-4.1-2.9-2.74-4.35-6.26-4.35-10.55zm29.98 133h-28.32V304.86h28.32v105.66zm82.62-79.2c-3.84-.52-7.23-.78-10.16-.78-10.68 0-17.68 3.61-21 10.84v69.14h-28.22V304.86h26.66l.78 12.6c5.66-9.7 13.51-14.55 23.54-14.55 3.12 0 6.05.42 8.79 1.27l-.39 27.14zm52.24-52.44v25.98h18.07v20.7h-18.07v52.73c0 3.91.75 6.71 2.25 8.4 1.5 1.69 4.36 2.54 8.59 2.54 3.12 0 5.89-.23 8.3-.68v21.39a58.17 58.17 0 0 1-17.09 2.54c-19.79 0-29.88-9.99-30.27-29.98v-56.93h-15.43v-20.7h15.43v-25.98h28.22zm97.07 120.9c-6.97 8.46-16.6 12.7-28.91 12.7-11.33 0-19.97-3.25-25.93-9.77-5.96-6.51-9-16.05-9.13-28.61v-69.24h28.22v68.34c0 11.02 5.01 16.52 15.04 16.52 9.57 0 16.14-3.32 19.73-9.97v-74.89h28.32v105.66h-26.56l-.78-10.74zm109.87 10.74c-1.3-2.54-2.25-5.7-2.83-9.47-6.84 7.62-15.72 11.43-26.66 11.43-10.35 0-18.93-2.99-25.73-8.98-6.8-5.99-10.21-13.54-10.21-22.66 0-11.2 4.15-19.79 12.45-25.78 8.3-5.99 20.3-9.02 35.99-9.08h12.99v-6.05c0-4.88-1.25-8.79-3.76-11.72-2.51-2.93-6.46-4.39-11.87-4.39-4.75 0-8.48 1.14-11.18 3.42-2.7 2.28-4.05 5.4-4.05 9.38H939.6c0-6.12 1.89-11.78 5.66-16.99 3.78-5.21 9.11-9.29 16.02-12.26 6.9-2.96 14.65-4.44 23.24-4.44 13.02 0 23.36 3.27 31.01 9.81 7.65 6.54 11.47 15.74 11.47 27.59v45.8c.06 10.03 1.46 17.61 4.2 22.75v1.66h-28.52zm-23.34-19.63c4.17 0 8.01-.93 11.52-2.78s6.12-4.35 7.81-7.47v-18.16h-10.55c-14.13 0-21.65 4.88-22.56 14.65l-.1 1.66c0 3.52 1.24 6.41 3.71 8.69 2.48 2.28 5.87 3.41 10.17 3.41zm99.12 19.63h-28.32v-150h28.32v150zm25.09 0V268.34h49.8c17.25 0 30.34 3.31 39.26 9.91 8.92 6.61 13.38 16.29 13.38 29.05 0 6.97-1.79 13.1-5.37 18.41-3.58 5.31-8.56 9.2-14.94 11.67 7.29 1.82 13.04 5.5 17.24 11.04 4.2 5.53 6.3 12.3 6.3 20.31 0 13.67-4.36 24.02-13.09 31.05-8.72 7.03-21.16 10.61-37.3 10.74h-55.28zm29.3-82.61h21.68c14.78-.26 22.17-6.15 22.17-17.68 0-6.45-1.87-11.08-5.62-13.92-3.74-2.83-9.65-4.25-17.72-4.25h-20.51v35.85zm0 20.7v38.38h25.1c6.9 0 12.29-1.64 16.16-4.93 3.87-3.29 5.81-7.83 5.81-13.62 0-13.02-6.74-19.63-20.21-19.82h-26.86zm92.09 8.1c0-10.48 2.02-19.82 6.05-28.03 4.04-8.2 9.85-14.55 17.43-19.04 7.58-4.49 16.39-6.74 26.42-6.74 14.26 0 25.89 4.36 34.91 13.09 9.02 8.73 14.05 20.57 15.09 35.55l.2 7.23c0 16.21-4.53 29.22-13.57 39.01-9.05 9.8-21.19 14.7-36.43 14.7s-27.39-4.88-36.47-14.65-13.62-23.05-13.62-39.84v-1.28zm28.22 2.01c0 10.04 1.89 17.72 5.66 23.03 3.78 5.31 9.18 7.97 16.21 7.97 6.84 0 12.17-2.62 16.02-7.87 3.84-5.25 5.76-13.64 5.76-25.19 0-9.84-1.92-17.47-5.76-22.89-3.84-5.41-9.25-8.12-16.21-8.12-6.9 0-12.24 2.69-16.02 8.07-3.77 5.39-5.66 13.72-5.66 25zm127.45-22.32 17.77-31.54h30.18l-30.08 51.76 31.35 53.91h-30.27l-18.85-33.2-18.75 33.2h-30.37l31.35-53.91-29.98-51.76h30.27l17.38 31.54z" style="fill:#fefeff"/></svg>