<svg version="1.1" xmlns="http://www.w3.org/2000/svg" x="0" y="0" viewBox="0 0 512 512" xml:space="preserve"><style type="text/css">.st0{fill:#bbb}.st1{fill:#ddd}.st2{opacity:.15;fill:#444}.st3{fill:#999}.st4{fill:#36434f}.st5{fill:#cc584c}.st6{opacity:.5;fill:#eec646}.st7{fill:#f4f4f4}</style><path class="st0" d="M134.3 318.01l-13.92-1.47.42-3.98.42-3.98 13.92 1.47-.42 3.98-.42 3.98zm-4.81 45.75l.42-3.98-13.92-1.47-.42 3.98-.42 3.98 13.92 1.47.42-3.98zm7.33-69.61l.42-3.98-13.92-1.47-.42 3.98-.42 3.98 13.92 1.47.42-3.98zm-1.05 9.94l.42-3.98-13.92-1.47-.42 3.98-.42 3.98 13.92 1.47.42-3.98zm-5.24 49.73l.42-3.98-13.92-1.47-.42 3.98-.42 3.98 13.92 1.47.42-3.98zm1.05-9.95l.42-3.98-13.92-1.47-.42 3.98-.42 3.98 13.92 1.47.42-3.98zm1.05-9.94l.42-3.98-13.92-1.47-.42 3.98-.42 3.98 13.92 1.47.42-3.98zm1.04-9.95l.42-3.98-13.92-1.47-.42 3.98-.42 3.98 13.92 1.47.42-3.98zm8.38-79.56l.42-3.98-13.92-1.47-.42 3.98-.42 3.98 13.92 1.47.42-3.98zm1.05-9.94l.42-3.98-13.92-1.47-.42 3.98-.42 3.98 13.92 1.47.42-3.98zm-5.24 49.72l.42-3.98-13.92-1.47-.42 3.98-.42 3.98 13.92 1.47.42-3.98zm6.29-59.67l.42-3.98-13.92-1.47-.42 3.98-.42 3.98 13.92 1.47.42-3.98zm-5.24 49.73l.42-3.98-13.92-1.47-.42 3.98-.42 3.98 13.92 1.47.42-3.98zm1.05-9.95l.42-3.98-13.92-1.47-.42 3.98-.42 3.98 13.92 1.47.42-3.98zm1.05-9.94l.42-3.98-13.92-1.47-.42 3.98-.42 3.98 13.92 1.47.42-3.98zm-25.14 238.68l.42-3.98-13.92-1.47-.42 3.98-.42 3.98 13.92 1.47.42-3.98zm3.14-29.84l.42-3.98-13.92-1.47-.42 3.98-.42 3.98 13.92 1.47.42-3.98zm1.05-9.94l.42-3.98-13.92-1.47-.42 3.98-.42 3.98 13.92 1.47.42-3.98zm-2.1 19.89l.42-3.98-13.92-1.47-.42 3.98-.42 3.98 13.92 1.47.42-3.98zM113.87 512l.32-3.04-13.92-1.47-.42 3.98-.05.53h14.07zm14.57-138.29l.42-3.98-13.92-1.47-.42 3.98-.42 3.98 13.92 1.47.42-3.98zm-13.62 129.28l.42-3.98-13.92-1.47-.42 3.98-.42 3.98 13.92 1.47.42-3.98zm2.1-19.89l.42-3.98-13.92-1.47-.42 3.98-.42 3.98 13.92 1.47.42-3.98zm4.19-39.78l.42-3.98-13.92-1.47-.42 3.98-.42 3.98 13.92 1.47.42-3.98zm5.23-49.72l.42-3.98-13.92-1.47-.42 3.98-.42 3.98 13.92 1.47.42-3.98zm-1.04 9.94l.42-3.98-13.92-1.47-.42 3.98-.42 3.98 13.92 1.47.42-3.98zm-3.15 29.84l.42-3.98-13.92-1.47-.42 3.98-.42 3.98 13.92 1.47.42-3.98zm5.24-49.73l.42-3.98-13.92-1.47-.42 3.98-.42 3.98 13.92 1.47.42-3.98zm-4.19 39.78l.42-3.98-13.92-1.47-.42 3.98-.42 3.98 13.92 1.47.42-3.98zm1.05-9.94l.42-3.98-13.92-1.47-.42 3.98-.42 3.98 13.92 1.47.42-3.98zM145.89 512l14.55-161.77-19.92-1.79L125.81 512zm231.39-197.96l-.42-3.98 13.92-1.47.42 3.98.42 3.98-13.92 1.47-.42-3.98zm5.65 53.7l13.92-1.47-.42-3.98-.42-3.98-13.92 1.47.42 3.98.42 3.98zm-7.33-69.62l13.92-1.47-.42-3.98-.42-3.98-13.92 1.47.42 3.98.42 3.98zm1.05 9.95l13.92-1.47-.42-3.98-.42-3.98-13.92 1.47.42 3.98.42 3.98zm5.24 49.72l13.92-1.47-.42-3.98-.42-3.98-13.92 1.47.42 3.98.42 3.98zm-1.05-9.94l13.92-1.47-.42-3.98-.42-3.98-13.92 1.47.42 3.98.42 3.98zm-1.05-9.95l13.92-1.47-.42-3.98-.42-3.98-13.92 1.47.42 3.98.42 3.98zm-1.05-9.94l13.92-1.47-.42-3.98-.42-3.98-13.91 1.47.42 3.98.41 3.98zm-8.38-79.56l13.92-1.47-.42-3.98-.42-3.98-13.92 1.47.42 3.98.42 3.98zm-1.04-9.95l13.92-1.47-.42-3.98-.42-3.98-13.92 1.47.42 3.98.42 3.98zm5.23 49.73l13.92-1.47-.42-3.98-.42-3.98-13.92 1.47.42 3.98.42 3.98zm-6.28-59.67l13.92-1.47-.42-3.98-.42-3.98-13.92 1.47.42 3.98.42 3.98zm5.24 49.72l13.92-1.47-.42-3.98-.42-3.98-13.92 1.47.42 3.98.42 3.98zm-1.05-9.94l13.92-1.47-.42-3.98-.42-3.98-13.92 1.47.42 3.98.42 3.98zm-1.05-9.95l13.92-1.47-.42-3.98-.42-3.98-13.92 1.47.42 3.98.42 3.98zm25.14 238.68l13.92-1.47-.42-3.98-.42-3.98-13.92 1.47.42 3.98.42 3.98zm-3.14-29.83l13.92-1.47-.42-3.98-.42-3.98-13.92 1.47.42 3.98.42 3.98zm-1.05-9.95l13.92-1.47-.42-3.98-.42-3.98-13.92 1.47.42 3.98.42 3.98zm2.1 19.89l13.92-1.47-.42-3.98-.42-3.98-13.92 1.47.42 3.98.42 3.98zM412.2 512l-.06-.53-.42-3.98-13.92 1.47.32 3.04h14.08zm-28.22-134.32l13.92-1.47-.42-3.98-.42-3.98-13.92 1.47.42 3.98.42 3.98zm13.62 129.29l13.92-1.47-.42-3.98-.42-3.98-13.92 1.47.42 3.98.42 3.98zm-2.1-19.89l13.92-1.47-.42-3.98-.42-3.98-13.92 1.47.42 3.98.42 3.98zm-4.19-39.78l13.92-1.47-.42-3.98-.42-3.98-13.92 1.47.42 3.98.42 3.98zm-5.23-49.73L400 396.1l-.42-3.98-.42-3.98-13.92 1.47.42 3.98.42 3.98zm1.04 9.95l13.92-1.47-.42-3.98-.42-3.98-13.92 1.47.42 3.98.42 3.98zm3.15 29.83l13.92-1.47-.42-3.98-.42-3.98-13.92 1.47.42 3.98.42 3.98zm-5.24-49.72l13.92-1.47-.42-3.98-.42-3.98-13.92 1.47.42 3.98.42 3.98zm4.19 39.78l13.92-1.47-.42-3.98-.42-3.98-13.92 1.47.42 3.98.42 3.98zm-1.05-9.95l13.92-1.47-.42-3.98-.42-3.98-13.92 1.47.42 3.98.42 3.98zM366.11 512l-14.55-161.77 19.92-1.79L386.19 512z"/><path class="st1" d="M161 410h190v102H161z"/><path class="st2" d="M351 413.5c-.65.68-1.32 1.35-2.01 2.01l-35.62 34.12c-11.16 10.69-25.81 16.57-41.26 16.57h-32.22c-15.45 0-30.11-5.89-41.27-16.57L163 415.52c-.69-.66-1.35-1.33-2.01-2.01v44.4l15.49 14.84c17.15 16.42 39.66 25.46 63.4 25.46h32.22c23.74 0 46.25-9.04 63.4-25.46L351 457.9v-44.4z"/><path class="st1" d="M258.61 0h-5.23c-75.11 0-136 60.89-136 136v107.89c0 8.07.31 16.14.94 24.19l8.21 105.35a83.204 83.204 0 0025.4 53.63l35.62 34.12a75.644 75.644 0 0052.33 21.02h32.23c19.5 0 38.25-7.53 52.33-21.02l35.62-34.12a83.178 83.178 0 0025.4-53.63l8.21-105.35c.63-8.05.94-16.12.94-24.19V136c0-75.11-60.89-136-136-136z"/><path class="st3" d="M129.44 282l7.06 90.65a73.15 73.15 0 0022.35 47.19l35.62 34.12c12.28 11.76 28.41 18.24 45.42 18.24h32.22c17.01 0 33.13-6.48 45.42-18.24l35.62-34.12a73.127 73.127 0 0022.35-47.19l7.06-90.65H129.44z"/><path class="st1" d="M378 262l-2 24-5.46 58.38a105.515 105.515 0 01-28.05 62.31l-21.93 23.41c-3.97 4.24-11.05 1.05-10.51-4.73l2.67-28.89a24.53 24.53 0 00-5.16-17.44c-.53-.67-1.46-.88-2.23-.49l-12.54 6.34a52.086 52.086 0 01-23.52 5.61h-26.55c-8.17 0-16.23-1.92-23.52-5.61l-12.54-6.34c-.76-.39-1.7-.18-2.23.49a24.578 24.578 0 00-5.16 17.44l2.67 28.89c.53 5.78-6.55 8.96-10.51 4.73l-21.93-23.41c-16-17.08-25.87-39-28.05-62.31L136 286l-2-24-16.44-8.17c.15 4.75.4 9.5.77 14.25l8.21 105.35a83.204 83.204 0 0025.4 53.63l35.62 34.12a75.644 75.644 0 0052.33 21.02h32.22c19.5 0 38.25-7.53 52.33-21.02l35.62-34.12a83.178 83.178 0 0025.4-53.63l8.21-105.35c.37-4.74.62-9.49.77-14.25L378 262z"/><path class="st0" d="M394.61 208.79V136c0-16.62-2.99-32.55-8.45-47.27-3.89 14.06-6.16 31.01-6.16 49.27 0 29.02 5.75 54.76 14.61 70.79zm-277.22-.42v.42C126.25 192.76 132 167.02 132 138c0-18.26-2.27-35.21-6.17-49.27-5.46 14.72-8.45 30.65-8.45 47.27v72.37z"/><path class="st1" d="M400.26 200.98c-.7-9.41-4.75-18.25-11.42-24.92l-2.79-2.79a48.135 48.135 0 00-45.14-12.8l-55.53 13.16a127.363 127.363 0 01-58.76 0l-55.53-13.16a48.16 48.16 0 00-45.14 12.8l-2.79 2.79a39.386 39.386 0 00-11.42 24.92c-1.8 24.33 2.18 48.75 11.61 71.25l13.12 31.29c6.32 15.07 23.8 21.98 38.71 15.3l37.84-16.94c5.19-2.33 11.06 1.48 11.06 7.17v25.17c0 9.6-9.53 23.06-14.76 29.72-1.43 1.82-.37 4.51 1.92 4.86l44.75 6.86 44.75-6.86c2.29-.35 3.35-3.04 1.92-4.86-5.22-6.66-14.76-20.11-14.76-29.72v-25.17c0-5.69 5.87-9.49 11.06-7.17l37.84 16.94c14.91 6.67 32.39-.24 38.71-15.3l13.12-31.29c9.45-22.5 13.43-46.91 11.63-71.25z"/><path class="st0" d="M117.39 183.42c1.62-2.66 3.55-5.13 5.78-7.36l2.79-2.79a48.144 48.144 0 0134.04-14.1c3.69 0 7.42.43 11.1 1.3l55.53 13.16a127.36 127.36 0 0029.38 3.43c9.86 0 19.72-1.14 29.38-3.43l55.53-13.16c3.68-.87 7.4-1.3 11.1-1.3 12.62 0 24.91 4.97 34.04 14.1l2.79 2.79c2.23 2.23 4.16 4.71 5.78 7.36v-3.62a42.67 42.67 0 00-4.36-5.16l-2.79-2.79c-9.47-9.47-22.06-14.69-35.45-14.69-3.88 0-7.77.45-11.56 1.35l-55.53 13.16c-9.46 2.24-19.19 3.38-28.92 3.38s-19.46-1.14-28.92-3.38l-55.53-13.16a49.97 49.97 0 00-11.56-1.35c-13.39 0-25.98 5.21-35.45 14.69l-2.79 2.79c-1.6 1.6-3.06 3.33-4.36 5.16v3.62z"/><path class="st4" d="M252.09 266v54.91c0 6.16-7.05 9.66-11.96 5.93l-1.38-1.05a9.711 9.711 0 01-3.38-10.69l15.74-49.27c.18-.52.98-.4.98.17zm7.82 0v54.91c0 6.16 7.05 9.66 11.96 5.93l1.38-1.05a9.711 9.711 0 003.38-10.69l-15.74-49.27c-.18-.52-.98-.4-.98.17zm-115.03-43.11l1.5 17.32c1.1 12.72 10.85 23 23.49 24.77a85.446 85.446 0 0050.98-8.65l3.38-1.74c11.17-5.75 15.97-19.17 10.98-30.7a17.386 17.386 0 00-13.61-10.31l-12.4-1.67v.96l-31.9-4.24v-1.03l-14.35-1.94c-10.14-1.37-18.95 7.02-18.07 17.23z"/><path class="st3" d="M166.27 228.07c0 13.54 10.98 24.52 24.52 24.52s24.52-10.98 24.52-24.52c0-6.2-2.3-11.85-6.09-16.17l-31.91-4.31c-6.65 4.39-11.04 11.92-11.04 20.48z"/><circle class="st5" cx="190.79" cy="228.07" r="14.69"/><circle class="st6" cx="190.79" cy="228.07" r="7.59"/><path class="st4" d="M367.12 222.89l-1.5 17.32c-1.1 12.72-10.85 23-23.49 24.77a85.446 85.446 0 01-50.98-8.65l-3.38-1.74c-11.17-5.75-15.97-19.17-10.98-30.7 2.42-5.58 7.58-9.49 13.61-10.31l12.4-1.67v.96l31.9-4.24v-1.03l14.35-1.94c10.14-1.37 18.95 7.02 18.07 17.23z"/><path class="st3" d="M345.73 228.07c0 13.54-10.98 24.52-24.52 24.52s-24.52-10.98-24.52-24.52c0-6.2 2.3-11.85 6.09-16.17l31.91-4.31c6.65 4.39 11.04 11.92 11.04 20.48z"/><circle class="st5" cx="321.21" cy="228.07" r="14.69"/><circle class="st6" cx="321.21" cy="228.07" r="7.59"/><path class="st7" d="M239.59 367.06v8c0 2.91 2.36 5.28 5.28 5.28h6.46c2.58 0 4.67-2.09 4.67-4.67 0-2.96-1.05-5.83-2.96-8.09l-.78-.93a8.79 8.79 0 00-6.72-3.12h-2.41a3.525 3.525 0 00-3.54 3.53z"/><path class="st7" d="M228.59 364.84v7.13c0 2.87 2.33 5.2 5.2 5.2h2.38c1.89 0 3.42-1.53 3.42-3.42v-2.24c0-1.6-.74-3.1-2.01-4.08l-5.56-4.28c-1.4-1.08-3.43-.08-3.43 1.69zm-2.27-.07l-3.74-2.93c-1.22-.95-2.99-.09-2.99 1.46v9.15a3.73 3.73 0 003.73 3.73h2.04c1.78 0 3.23-1.45 3.23-3.23v-3.53c0-1.81-.84-3.53-2.27-4.65z"/><path class="st7" d="M212.11 362.67v8.64c0 1.75 1.42 3.17 3.17 3.17h1.66c1.46 0 2.65-1.19 2.65-2.65v-4.46c0-1.93-.98-3.72-2.61-4.76l-2.2-1.4c-1.15-.74-2.67.09-2.67 1.46zm-8.52 1.15v4.56a3.55 3.55 0 003.55 3.55h2.18c1.54 0 2.79-1.25 2.79-2.79v-2.56c0-1.24-.71-2.37-1.83-2.9l-3.7-1.76c-1.39-.66-2.99.36-2.99 1.9zm42.5 22.18v8c0 1.1.9 2 2 2H254c1.1 0 2-.9 2-2v-8c0-1.1-.9-2-2-2h-5.91a2 2 0 00-2 2zm-9 1.09v7.52c0 .77.62 1.39 1.39 1.39h5.94c.92 0 1.67-.75 1.67-1.67v-7.19c0-1.18-.96-2.14-2.14-2.14h-4.77c-1.15 0-2.09.94-2.09 2.09z"/><path class="st7" d="M228.09 385.8v5.79c0 .84.54 1.58 1.33 1.84l6.32 2.11c.66.22 1.35-.27 1.35-.97v-7.23a2.64 2.64 0 00-2.34-2.62l-4.87-.54c-.96-.09-1.79.66-1.79 1.62zm-8.5-3.4v5.7c0 1.19.75 2.24 1.88 2.63l4.73 1.62c.93.32 1.89-.37 1.89-1.35v-4.94c0-1.25-.74-2.38-1.89-2.87l-4.72-2.02c-.9-.39-1.89.26-1.89 1.23zm-7.48-3.1v3.3c0 1.5.74 2.9 1.98 3.75l3.57 2.43c.82.56 1.93-.03 1.93-1.02v-5.2c0-1.34-.8-2.56-2.04-3.08l-3.47-1.47c-.94-.4-1.97.28-1.97 1.29zm-8.52-2.28v1.6c0 1.06.58 2.03 1.5 2.54l5.33 2.91c.76.42 1.69-.13 1.69-1v-3.97c0-1.15-.74-2.17-1.84-2.51l-4.26-1.34c-1.2-.38-2.42.51-2.42 1.77zm68.82-9.96v8c0 2.91-2.36 5.28-5.28 5.28h-6.46c-2.58 0-4.67-2.09-4.67-4.67 0-2.96 1.05-5.83 2.96-8.09l.78-.93a8.79 8.79 0 016.72-3.12h2.41a3.525 3.525 0 013.54 3.53z"/><path class="st7" d="M283.41 364.84v7.13c0 2.87-2.33 5.2-5.2 5.2h-2.38c-1.89 0-3.42-1.53-3.42-3.42v-2.24c0-1.6.74-3.1 2.01-4.08l5.56-4.28c1.4-1.08 3.43-.08 3.43 1.69z"/><path class="st7" d="M285.68 364.77l3.74-2.93c1.22-.95 2.99-.09 2.99 1.46v9.15a3.73 3.73 0 01-3.73 3.73h-2.04c-1.78 0-3.23-1.45-3.23-3.23v-3.53c0-1.81.84-3.53 2.27-4.65z"/><path class="st7" d="M299.89 362.67v8.64c0 1.75-1.42 3.17-3.17 3.17h-1.66c-1.46 0-2.65-1.19-2.65-2.65v-4.46c0-1.93.98-3.72 2.61-4.76l2.2-1.4c1.15-.74 2.67.09 2.67 1.46zm8.52 1.15v4.56a3.55 3.55 0 01-3.55 3.55h-2.18c-1.54 0-2.79-1.25-2.79-2.79v-2.56c0-1.24.71-2.37 1.83-2.9l3.7-1.76c1.39-.66 2.99.36 2.99 1.9zM265.91 386v8c0 1.1-.9 2-2 2H258c-1.1 0-2-.9-2-2v-8c0-1.1.9-2 2-2h5.91a2 2 0 012 2zm9 1.09v7.52c0 .77-.62 1.39-1.39 1.39h-5.94c-.92 0-1.67-.75-1.67-1.67v-7.19c0-1.18.96-2.14 2.14-2.14h4.77c1.15 0 2.09.94 2.09 2.09zm9-1.29v5.79c0 .84-.54 1.58-1.33 1.84l-6.32 2.11c-.66.22-1.35-.27-1.35-.97v-7.23a2.64 2.64 0 012.34-2.62l4.87-.54c.96-.09 1.79.66 1.79 1.62zm8.5-3.4v5.7c0 1.19-.75 2.24-1.88 2.63l-4.73 1.62c-.93.32-1.89-.37-1.89-1.35v-4.94c0-1.25.74-2.38 1.89-2.87l4.72-2.02c.9-.39 1.89.26 1.89 1.23z"/><path class="st7" d="M299.89 379.3v3.3c0 1.5-.74 2.9-1.98 3.75l-3.57 2.43c-.82.56-1.93-.03-1.93-1.02v-5.2c0-1.34.8-2.56 2.04-3.08l3.47-1.47c.94-.4 1.97.28 1.97 1.29z"/><path class="st7" d="M308.41 377.02v1.6c0 1.06-.58 2.03-1.5 2.54l-5.33 2.91a1.14 1.14 0 01-1.69-1v-3.97c0-1.15.74-2.17 1.84-2.51l4.26-1.34c1.2-.38 2.42.51 2.42 1.77z"/><path class="st0" d="M209.63 20.71v2c7.37 0 12.44 2.01 13.89 5.52 2.71 6.54-7.37 18.92-26.69 26.92-8.34 3.46-16.87 5.36-24.01 5.36-7.38 0-12.44-2.01-13.89-5.52-2.71-6.54 7.37-18.92 26.69-26.92 8.34-3.46 16.87-5.36 24.01-5.36v-2m0 0c-7.12 0-15.87 1.82-24.78 5.51-18.86 7.81-31.29 21.03-27.77 29.53 1.86 4.48 7.78 6.76 15.74 6.76 7.12 0 15.87-1.82 24.78-5.51 18.86-7.81 31.29-21.03 27.77-29.53-1.86-4.49-7.79-6.76-15.74-6.76z"/><ellipse transform="rotate(-22.5 189.197 39.608)" class="st0" cx="189.22" cy="39.61" rx="12.5" ry="5.63"/><circle class="st4" cx="236" cy="344.5" r="3.5"/><circle class="st4" cx="276" cy="344.5" r="3.5"/><path class="st0" d="M301.3 86.67C288.85 79.37 273.12 75 256 75s-32.85 4.37-45.3 11.67a72.541 72.541 0 00-6.09 3.98l14.82 57.41a17.404 17.404 0 0012.51 12.51l5 1.29a76.192 76.192 0 0038.12 0l5-1.29a17.454 17.454 0 0012.51-12.51l14.82-57.41a74.209 74.209 0 00-6.09-3.98zM160.78 199.51c.99 0 1.99.07 2.97.2l14.36 1.94 31.9 4.31 12.16 1.64c7.95 1.07 14.69 5.85 18.03 12.78 6.97 14.46 1.04 32.2-13.22 39.55l-3.38 1.74a91.24 91.24 0 01-24.62 8.48c-2.12.41-4.32 1.04-6.51 1.88l-27.88 10.65c-1.39.53-2.85.8-4.32.8-5.35 0-10.13-3.59-11.63-8.73l-4.83-16.55a94.958 94.958 0 01-3.15-15.4v-.06c-.11-.78-.19-1.42-.24-2.03l-1.5-17.32a22.061 22.061 0 015.7-16.76 21.99 21.99 0 0116.16-7.12m0-2c-6.68 0-13.11 2.84-17.65 7.79a24.028 24.028 0 00-6.21 18.28l1.5 17.32c.06.72.15 1.44.26 2.15.64 5.32 1.71 10.58 3.22 15.72l4.83 16.55c1.81 6.21 7.48 10.17 13.55 10.17 1.67 0 3.37-.3 5.03-.93l27.88-10.65c2.01-.77 4.07-1.38 6.18-1.78 8.74-1.68 17.24-4.59 25.16-8.67l3.38-1.74c15.25-7.85 21.63-26.61 14.11-42.19-3.69-7.64-11.16-12.75-19.57-13.89L210.29 204l-31.9-4.31-14.36-1.94c-1.09-.17-2.17-.24-3.25-.24zm190.44 2c6.12 0 12.02 2.6 16.18 7.14a22.035 22.035 0 015.7 16.76l-1.5 17.32c-.05.61-.13 1.25-.24 2.03v.06c-.62 5.2-1.68 10.38-3.15 15.4l-4.83 16.55c-1.5 5.14-6.28 8.73-11.63 8.73-1.47 0-2.93-.27-4.32-.8l-27.88-10.65c-2.2-.84-4.39-1.47-6.51-1.88-8.62-1.66-16.91-4.51-24.62-8.48l-3.38-1.74c-14.27-7.35-20.2-25.09-13.22-39.55 3.34-6.93 10.08-11.7 18.03-12.78l12.16-1.64 31.9-4.31 14.36-1.94c.96-.15 1.96-.22 2.95-.22m0-2c-1.08 0-2.16.07-3.24.22l-14.36 1.94-31.9 4.31-12.16 1.64c-8.41 1.14-15.88 6.25-19.57 13.89-7.52 15.59-1.14 34.34 14.11 42.19l3.38 1.74c7.92 4.08 16.42 6.99 25.16 8.67 2.11.41 4.17 1.02 6.18 1.78l27.88 10.65c1.66.63 3.36.93 5.03.93 6.07 0 11.74-3.96 13.55-10.17l4.83-16.55a97.85 97.85 0 003.22-15.72c.1-.71.2-1.42.26-2.15l1.5-17.32c.58-6.68-1.69-13.34-6.21-18.28-4.55-4.93-10.98-7.77-17.66-7.77z"/><path class="st1" d="M176.5 351.41l-11.26 2.89-9.04-35.24 11.26-2.89 9.04 35.24zm15.41 60.07l-11.26 2.89 6.47 25.23 11.26-2.89-6.47-25.23zm-24.032-55.769l7.004-1.796 14.41 56.194-7.004 1.796z"/><path class="st1" d="M224.09 304.04l-6.5-3.16-38.33 78.81-.09 5.31 3.45 4.31z"/><path class="st1" d="M193.35 355.63l-16.73 14.31 2.55 24.24 2.84 6.1 13.46-38.56z"/><circle class="st0" cx="186.5" cy="369.5" r="2.5"/><path class="st1" d="M344.53 316.18l11.26 2.89-9.04 35.24-11.26-2.89 9.04-35.24zm-30.91 120.54l11.26 2.89 6.47-25.23-11.26-2.89-6.47 25.23zm9.116-26.641l14.41-56.195 7.003 1.796-14.41 56.195z"/><path class="st1" d="M287.91 304.04l6.5-3.16 38.33 78.81.09 5.31-3.45 4.31z"/><path class="st1" d="M318.65 355.63l16.73 14.31-2.55 24.24-2.84 6.1-13.46-38.56z"/><circle class="st0" cx="325.5" cy="369.5" r="2.5"/><path class="st0" d="M326.62 47.15l1.4.69.75-28.36c-.65-.39-1.31-.78-1.97-1.16l-.7 26.37C308.62 36.38 288.57 32 268 32c-7.74 0-15.49.63-23.05 1.86L237.58.92c-.67.08-1.33.15-2 .24l7.83 34.99.94-.16C252.1 34.67 260.05 34 268 34c20.81 0 41.08 4.55 58.62 13.15zM217.26 59.48l-.2-1.99a289.54 289.54 0 0144.18-1.12l1.75-13.7.94.06c14 .89 27.79 2.81 40.97 5.71l-.43 1.95c-12.79-2.81-26.15-4.69-39.73-5.6L263 58.47l-.93-.05c-15.11-.81-30.19-.44-44.81 1.06zm119.19 8.28c7.71 3.45 14.87 7.82 21.33 13.03l-3.2 13.95c-5.99-5.01-12.59-9.31-19.69-12.84l1.56-14.14m-1.69-2.9l-2.01 18.23c8.53 4.09 16.28 9.29 23.04 15.35l4.22-18.4c-7.43-6.16-15.93-11.31-25.25-15.18zM256 411.89h-17.12c-2.77 0-4.71 2.75-3.76 5.36l10.11 27.92a7.998 7.998 0 007.52 5.28h6.51c3.37 0 6.38-2.11 7.52-5.28l10.11-27.92c.94-2.61-.99-5.36-3.76-5.36H256zm-28.78 5.71l-14.13-12.12c-2.35-2.02-5.96-.15-5.68 2.93l1.49 16.14c.03.37 3.94 17.05 5.94 25.56.7 3 3.03 5.36 6.02 6.1 4.14 1.04 8.44-1 10.28-4.86l1.19-2.5c2.38-5.02 2.67-10.78.81-16.02-1.84-5.15-4-11.26-4.8-13.59-.21-.63-.6-1.2-1.12-1.64zm57.56 0l14.13-12.12c2.35-2.02 5.96-.15 5.68 2.93l-1.49 16.14c-.03.37-3.94 17.05-5.94 25.56-.7 3-3.03 5.36-6.02 6.1-4.14 1.04-8.44-1-10.28-4.86l-1.19-2.5a20.997 20.997 0 01-.81-16.02c1.84-5.15 4-11.26 4.8-13.59.21-.63.6-1.2 1.12-1.64z"/><ellipse class="st4" cx="126.5" cy="219" rx="5" ry="11"/><ellipse class="st4" cx="385.5" cy="219" rx="5" ry="11"/><path class="st0" d="M141.85 149.29h-.11a2.998 2.998 0 01-2.89-3.11c.1-2.7.15-5.45.15-8.18 0-6.57-.29-13.14-.86-19.52a3.004 3.004 0 012.72-3.26 3.004 3.004 0 013.26 2.72c.58 6.56.88 13.31.88 20.06 0 2.8-.05 5.62-.15 8.4a3.007 3.007 0 01-3 2.89zm228.3 0h.11a2.998 2.998 0 002.89-3.11c-.1-2.7-.15-5.45-.15-8.18 0-6.57.29-13.14.86-19.52a3.004 3.004 0 00-2.72-3.26 3.004 3.004 0 00-3.26 2.72c-.58 6.56-.88 13.31-.88 20.06 0 2.8.05 5.62.15 8.4a3.007 3.007 0 003 2.89z"/><path class="st2" d="M108.65 427.93l13.92 1.47-.42 3.98-.42 3.98-13.92-1.47.42-3.98.42-3.98zm15.6-14.44l.42-3.98-13.92-1.47-.42 3.98-.42 3.98 13.92 1.47.42-3.98zm-17.07 28.36l-.42 3.98 13.92 1.47.42-3.98.42-3.98-13.92-1.47-.42 3.98zm-1.04 9.95l-.42 3.98 13.92 1.47.42-3.98.42-3.98-13.92-1.47-.42 3.98zm20.2-58.2l.42-3.98-13.92-1.47-.42 3.98-.42 3.98 13.92 1.47.42-3.98zm-14.97 8.47l-.42 3.98 13.92 1.47.42-3.98.42-3.98-13.92-1.47-.42 3.98zm-2.09 19.89l-.42 3.98 13.92 1.47.42-3.98.42-3.98-13.92-1.47-.42 3.98zm-8.38 79.56l-.42 3.98 13.92 1.47.42-3.98.42-3.98-13.92-1.47-.42 3.98zm-.63 5.97l-.42 3.98-.05.53h14.08l.32-3.04-13.93-1.47zM253.39 0c-5.35 0-10.62.32-15.8.92-51.54 5.97-94.3 40.74-111.75 87.81-.28.76-.56 1.53-.83 2.31-.07.21-.15.42-.22.63-.24.71-.48 1.42-.71 2.13-.09.28-.18.55-.27.83-.22.68-.43 1.37-.64 2.06-.09.31-.19.62-.28.94-.2.67-.39 1.35-.58 2.02l-.27.99c-.18.67-.36 1.35-.53 2.02l-.24.99c-.17.69-.34 1.37-.49 2.06l-.18.82c-.34 1.52-.65 3.05-.93 4.59-.04.19-.07.38-.11.57-.1.58-.2 1.16-.29 1.74-.08.49-.17.97-.24 1.46l-.24 1.62c-.08.54-.15 1.07-.23 1.61-.07.52-.13 1.04-.19 1.56-.07.57-.13 1.13-.19 1.7l-.15 1.51c-.06.6-.11 1.2-.16 1.8-.04.48-.08.96-.11 1.45-.05.64-.08 1.28-.12 1.92-.03.45-.05.9-.08 1.35-.03.72-.06 1.45-.08 2.17-.01.37-.03.75-.04 1.12-.03 1.1-.04 2.21-.04 3.32v47.42a39.32 39.32 0 00-5.64 17.56 154.76 154.76 0 005.88 55.1c.06 1.52.14 3.05.22 4.57.01.14.01.27.02.41.13 2.34.28 4.67.46 7.01l3.16 40.54-.27-.03-.42 3.98-.42 3.98 1.74.18.16 2.03-2.1-.22-.42 3.98-.42 3.98 3.57.38.16 2.03-3.94-.42-.42 3.98-.42 3.98 5.41.57.16 2.03-5.78-.61-.42 3.98-.42 3.98 7.25.76.16 2.03-7.62-.8-.42 3.98-.42 3.98 9.09.96.16 2.03-9.45-1-.42 3.98-.42 3.98 10.92 1.15.16 2.03-11.29-1.19-.42 3.98-.42 3.98 12.87 1.36c.09.68.2 1.36.3 2.04l-13.38-1.41-.42 3.98-.42 3.98 13.92 1.47.42-3.98.21-2a83.269 83.269 0 007.84 23.23L125.81 512h20.08l7.52-83.53 7.6 7.28V512h95V0h-2.62zM101.95 491.58l-.42 3.98 13.92 1.47.42-3.98.42-3.98-13.92-1.47-.42 3.98zm3.14-29.84l-.42 3.98 13.92 1.47.42-3.98.42-3.98-13.92-1.47-.42 3.98zm-1.05 9.95l-.42 3.98 13.92 1.47.42-3.98.42-3.98-13.92-1.47-.42 3.98zm-1.05 9.94l-.42 3.98 13.92 1.47.42-3.98.42-3.98-13.92-1.47-.42 3.98z"/></svg>