<svg xmlns="http://www.w3.org/2000/svg" viewBox="0 0 1920 673" style="enable-background:new 0 0 1920 673" xml:space="preserve"><path style="fill:#5db26d" d="M0 0h1920v673H0z"/><path d="M956.52 44.03c-23.86.11-46.65 2.14-66.68 5.69-59.08 10.44-69.81 32.27-69.81 72.56v53.2h139.56v17.73H767.66c-40.56 0-76.1 24.38-87.19 70.74-12.82 53.15-13.38 86.36 0 141.85 9.92 41.32 33.62 70.74 74.18 70.74h47.99v-63.77c0-46.07 39.86-86.72 87.19-86.72h139.4c38.81 0 69.81-31.95 69.81-70.9v-132.9c0-37.82-31.91-66.21-69.81-72.56-23.98-3.99-48.85-5.8-72.72-5.69l.01.03zm-75.48 42.78c14.42 0 26.19 11.97 26.19 26.68 0 14.66-11.77 26.52-26.19 26.52-14.47 0-26.19-11.85-26.19-26.52 0-14.71 11.72-26.68 26.19-26.68z" style="fill:#4888bb"/><path d="M1116.43 193.17v62c0 48.05-40.74 88.49-87.19 88.49h-139.4c-38.19 0-69.81 32.68-69.81 70.9v132.9c0 37.82 32.89 60.07 69.81 70.9 44.18 12.99 86.57 15.34 139.4 0 35.14-10.17 69.81-30.65 69.81-70.9v-53.2h-139.4v-17.73h209.21c40.56 0 55.7-28.29 69.81-70.74 14.57-43.72 13.95-85.79 0-141.85-10.03-40.38-29.17-70.74-69.81-70.74h-52.37l-.06-.03zm-78.39 336.59c14.47 0 26.19 11.85 26.19 26.52 0 14.71-11.72 26.68-26.19 26.68-14.42 0-26.19-11.97-26.19-26.68 0-14.66 11.77-26.52 26.19-26.52z" style="fill:#ffe364"/></svg>