<svg xmlns="http://www.w3.org/2000/svg" viewBox="0 0 1920 673" style="enable-background:new 0 0 1920 673" xml:space="preserve"><path style="fill:#10022f" d="M0 0h1920v673H0z"/><defs><filter id="a" filterUnits="userSpaceOnUse" x="702.67" y="80.5" width="514.67" height="512"><feColorMatrix values="1 0 0 0 0 0 1 0 0 0 0 0 1 0 0 0 0 0 1 0"/></filter></defs><mask maskUnits="userSpaceOnUse" x="702.67" y="80.5" width="514.67" height="512" id="b"><path d="M1071.99 591.69a32.12 32.12 0 0 0 21.07-2.36l106.04-50.98a32.176 32.176 0 0 0 18.23-29V163.66a32.148 32.148 0 0 0-18.23-29l-106.04-50.98a32.15 32.15 0 0 0-24.02-1.55 32.265 32.265 0 0 0-12.55 7.77l-170.9 189.03-99.82-81.81-8.74-7.51a21.447 21.447 0 0 0-19.35-4.45c-.98.22-1.93.54-2.84.96l-38.98 16.35a21.448 21.448 0 0 0-13.19 18.07v231.92c.66 8.02 5.75 15 13.19 18.07l38.98 16.08c.91.42 1.86.75 2.84.97 6.79 1.77 14.02.11 19.35-4.45l8.74-7.24 99.82-81.81 170.91 189.03c4.26 4.26 9.63 7.23 15.49 8.58zm16.68-364.12-132.9 108.94 132.9 108.94V227.57zM767 262.9l66.53 73.61-66.53 73.6V262.9z" style="fill-rule:evenodd;clip-rule:evenodd;fill:#fff;filter:url(#a)"/></mask><g style="mask:url(#b)"><path d="M777.03 483.4a21.453 21.453 0 0 1-22.2 3.48l-38.98-16.35a21.45 21.45 0 0 1-13.19-19.68v-228.7c.05-8.61 5.24-16.36 13.19-19.68l38.98-16.08a21.456 21.456 0 0 1 22.2 3.48l8.74 7.24c-5.31-3.82-12.72-2.61-16.54 2.7a11.914 11.914 0 0 0-2.23 6.95v259.48c-.02 6.54 5.27 11.86 11.82 11.88 2.49.01 4.92-.77 6.95-2.23l-8.74 7.51z" style="fill:#52218a"/><path d="M715.86 470.53a21.45 21.45 0 0 1-13.19-19.68v-1.77c.07 6.84 5.68 12.32 12.52 12.25 3.39-.04 6.62-1.46 8.93-3.94l332.39-367.5c9.65-9.6 24.29-12.09 36.56-6.22l106.04 51.04a32.176 32.176 0 0 1 18.23 29v1.23c-.01-11.22-9.11-20.31-20.34-20.3-4.68 0-9.22 1.63-12.85 4.59L785.76 475.89l-8.74 7.51a21.453 21.453 0 0 1-22.2 3.48l-38.96-16.35z" style="fill:#6c33af"/><path d="M715.86 202.48a21.45 21.45 0 0 0-13.19 19.68v1.77c.07-6.84 5.68-12.32 12.52-12.25 3.39.04 6.62 1.46 8.93 3.94l332.39 367.5c9.65 9.6 24.29 12.09 36.56 6.22l106.04-51.04a32.176 32.176 0 0 0 18.23-29v-1.23c-.01 11.22-9.11 20.31-20.34 20.3-4.68 0-9.22-1.63-12.85-4.59L785.76 197.12l-8.74-7.51a21.46 21.46 0 0 0-22.2-3.22l-38.96 16.09z" style="fill:#854cc7"/><path d="M1093.06 589.34c-12.28 5.87-26.92 3.38-36.56-6.22 7.4 7.34 19.34 7.3 26.69-.1a18.86 18.86 0 0 0 5.48-13.25V103.35c.04-10.42-8.38-18.9-18.81-18.94-5-.02-9.81 1.95-13.36 5.48 9.65-9.6 24.29-12.09 36.56-6.22l106.04 50.98a32.176 32.176 0 0 1 18.23 29v345.68a32.148 32.148 0 0 1-18.23 29l-106.04 51.01z" style="fill:#b179f1"/><g style="opacity:.25"><linearGradient id="c" gradientUnits="userSpaceOnUse" x1="960" y1="494.75" x2="960" y2="1006.75" gradientTransform="translate(0 -414.25)"><stop offset="0" style="stop-color:#fff"/><stop offset="1" style="stop-color:#fff;stop-opacity:0"/></linearGradient><path d="M1071.99 591.69a32.12 32.12 0 0 0 21.07-2.36l106.04-50.98a32.176 32.176 0 0 0 18.23-29V163.66a32.148 32.148 0 0 0-18.23-29l-106.04-50.98a32.15 32.15 0 0 0-24.02-1.55 32.265 32.265 0 0 0-12.55 7.77l-170.9 189.03-99.82-81.81-8.74-7.51a21.447 21.447 0 0 0-19.35-4.45c-.98.22-1.93.54-2.84.96l-38.98 16.35a21.448 21.448 0 0 0-13.19 18.07v231.92c.66 8.02 5.75 15 13.19 18.07l38.98 16.08c.91.42 1.86.75 2.84.97 6.79 1.77 14.02.11 19.35-4.45l8.74-7.24 99.82-81.81 170.91 189.03c4.26 4.26 9.63 7.23 15.49 8.58zm16.68-364.12-132.9 108.94 132.9 108.94V227.57zM767 262.9l66.53 73.61-66.53 73.6V262.9z" style="fill-rule:evenodd;clip-rule:evenodd;fill:url(#c)"/></g></g></svg>