<svg xmlns="http://www.w3.org/2000/svg" viewBox="0 0 1920 673" style="enable-background:new 0 0 1920 673" xml:space="preserve"><style>.st1{fill:#fff}</style><path style="fill:#5db26d" d="M0 0h1920v673H0z"/><path class="st1" d="M1033.7 389.5h-71.6v-14.2l33.8-36c4.6-5.1 8.1-9.5 10.3-13.3 2.2-3.8 3.3-7.4 3.3-10.8 0-4.6-1.2-8.3-3.5-10.9-2.3-2.7-5.7-4-10-4-4.7 0-8.4 1.6-11.1 4.8-2.7 3.2-4.1 7.5-4.1 12.7H960c0-6.4 1.5-12.2 4.6-17.4 3-5.3 7.3-9.4 12.9-12.4 5.6-3 11.8-4.5 18.9-4.5 10.8 0 19.1 2.6 25.1 7.8 6 5.2 8.9 12.5 8.9 21.9 0 5.2-1.3 10.4-4 15.8s-7.3 11.6-13.8 18.7l-23.8 25h44.9v16.8zm92-58.5h25.9v18.7h-25.9V379H1106v-29.3h-26V331h26v-28.1h19.7V331zm145.8 58.5h-71.6v-14.2l33.8-36c4.6-5.1 8.1-9.5 10.3-13.3 2.2-3.8 3.3-7.4 3.3-10.8 0-4.6-1.2-8.3-3.5-10.9-2.3-2.7-5.7-4-10-4-4.7 0-8.4 1.6-11.1 4.8-2.7 3.2-4.1 7.5-4.1 12.7h-20.8c0-6.4 1.5-12.2 4.6-17.4 3-5.3 7.3-9.4 12.9-12.4 5.6-3 11.8-4.5 18.9-4.5 10.8 0 19.1 2.6 25.1 7.8 6 5.2 8.9 12.5 8.9 21.9 0 5.2-1.3 10.4-4 15.8s-7.3 11.6-13.8 18.7l-23.8 25h44.9v16.8zm116.1-53.6h-64.2V319h64.2v16.9zm0 31.1h-64.2v-16.9h64.2V367zm115.3-16.9h11.8v16.7h-11.8v22.6h-20.7v-22.6h-42.8l-.9-13.1 43.6-68.8h21v65.2zm-43.8 0h23.1v-36.9l-1.4 2.4-21.7 34.5z"/><path d="M680.2 129.3c-16.9.1-33 1.5-47.2 4-41.9 7.4-49.5 22.9-49.5 51.4v37.7h98.9V235h-136c-28.7 0-53.9 17.3-61.8 50.1-9.1 37.7-9.5 61.2 0 100.5 7 29.3 23.8 50.1 52.6 50.1h34v-45.2c0-32.6 28.2-61.4 61.8-61.4h98.8c27.5 0 49.5-22.6 49.5-50.2v-94.2c0-26.8-22.6-46.9-49.5-51.4-17.1-2.8-34.7-4.1-51.6-4zm-53.5 30.3c10.2 0 18.6 8.5 18.6 18.9 0 10.4-8.3 18.8-18.6 18.8-10.2 0-18.6-8.4-18.6-18.8s8.3-18.9 18.6-18.9z" style="fill:#4888bb"/><path d="M793.5 235v43.9c0 34-28.9 62.7-61.8 62.7h-98.8c-27.1 0-49.5 23.2-49.5 50.2V486c0 26.8 23.3 42.6 49.5 50.2 31.3 9.2 61.3 10.9 98.8 0 24.9-7.2 49.5-21.7 49.5-50.2v-37.7h-98.8v-12.6h148.2c28.7 0 39.5-20 49.5-50.1 10.3-31 9.9-60.8 0-100.5-7.1-28.6-20.7-50.1-49.5-50.1h-37.1zm-55.6 238.4c10.2 0 18.6 8.4 18.6 18.8s-8.3 18.9-18.6 18.9c-10.2 0-18.6-8.5-18.6-18.9.1-10.4 8.4-18.8 18.6-18.8z" style="fill:#ffe364"/><path class="st1" d="M1122.9 583.9h-24v-100h24v100zm16.8 0v-100h32.2c8.8 0 16.8 2 23.8 6 7.1 4 12.6 9.7 16.5 17 4 7.3 6 15.5 6 24.6v4.6c0 9.2-1.9 17.4-5.8 24.6-3.9 7.3-9.3 12.9-16.3 17s-14.9 6.2-23.5 6.2h-32.9zm24.1-81.4v62.8h8.4c6.9 0 12.2-2.5 15.9-7.4 3.7-4.9 5.6-12.2 5.6-21.9v-4.3c0-9.7-1.9-16.9-5.6-21.8-3.7-4.9-9.1-7.3-16.2-7.3h-8.1zm90.9 62.9h42v18.5h-66.1v-100h24.1v81.5zm114.2-23.9H1331v23.9h44.8v18.5h-68.9v-100h69v18.6H1331v21.1h37.9v17.9z"/></svg>