<svg xmlns="http://www.w3.org/2000/svg" viewBox="0 0 1920 673" style="enable-background:new 0 0 1920 673" xml:space="preserve"><style>.st1{fill:#689f63}</style><path style="fill:#f7f7f7" d="M0 0h1920v673H0z"/><path class="st1" d="M954.5 627.6c-3.1 0-6.3-.8-9-2.4l-28.7-17c-4.3-2.4-2.2-3.2-.8-3.7 5.7-2 6.9-2.4 13-5.9.6-.4 1.5-.2 2.1.2l22 13.1c.8.4 1.9.4 2.7 0l85.8-49.6c.8-.5 1.3-1.4 1.3-2.3v-99.1c0-1-.5-1.9-1.3-2.4L955.9 409c-.8-.5-1.8-.5-2.6 0l-85.8 49.5c-.8.5-1.4 1.4-1.4 2.3v99.1c0 .9.5 1.8 1.3 2.3l23.5 13.6c12.8 6.4 20.6-1.1 20.6-8.7v-97.8c0-1.4 1.1-2.5 2.5-2.5h10.9c1.4 0 2.5 1.1 2.5 2.5v97.8c0 17-9.3 26.8-25.4 26.8-5 0-8.9 0-19.8-5.4l-22.5-13c-5.6-3.3-9-9.2-9-15.7v-99.1c0-6.4 3.4-12.5 9-15.6l85.9-49.6c5.4-3.1 12.7-3.1 18 0l85.8 49.6c5.6 3.2 9 9.2 9 15.6v99.1c0 6.4-3.5 12.4-9 15.6L963.6 625c-2.8 1.7-5.9 2.6-9.1 2.6"/><path class="st1" d="M981.1 559.3c-37.6 0-45.4-17.2-45.4-31.7 0-1.4 1.1-2.5 2.5-2.5h11.1c1.2 0 2.3.9 2.4 2.1 1.7 11.3 6.7 17 29.4 17 18.1 0 25.8-4.1 25.8-13.7 0-5.5-2.2-9.6-30.3-12.4-23.5-2.3-38-7.5-38-26.3 0-17.3 14.6-27.6 39.1-27.6 27.5 0 41.1 9.5 42.8 30 .1 1.4-.9 2.6-2.3 2.7h-11.4c-1.2 0-2.2-.8-2.4-1.9-2.7-11.9-9.2-15.7-26.8-15.7-19.7 0-22 6.9-22 12 0 6.3 2.7 8.1 29.4 11.6 26.4 3.5 38.9 8.4 38.9 27 0 18.7-15.6 29.4-42.8 29.4"/><path d="M688.7 240c0-4-2.1-7.6-5.5-9.6l-91-52.4c-1.5-.9-3.2-1.4-5-1.4h-.9c-1.7.1-3.5.5-5 1.4l-91 52.4c-3.4 2-5.5 5.6-5.5 9.6l.2 141c0 2 1 3.8 2.7 4.7 1.7 1 3.8 1 5.5 0l54.1-31c3.4-2 5.5-5.6 5.5-9.5v-65.9c0-3.9 2.1-7.6 5.5-9.5l23-13.3a10.838 10.838 0 0 1 11 0l23 13.3c3.4 2 5.5 5.6 5.5 9.5v65.9c0 3.9 2.1 7.5 5.5 9.5l54.1 31c1.7 1 3.8 1 5.5 0 1.7-1 2.7-2.8 2.7-4.7l.1-141zm429.5 73.4c0 1-.5 1.9-1.4 2.4l-31.3 18c-.8.5-1.9.5-2.7 0l-31.3-18c-.9-.5-1.4-1.4-1.4-2.4v-36.1c0-1 .5-1.9 1.4-2.4l31.2-18.1c.9-.5 1.9-.5 2.8 0l31.3 18.1c.9.5 1.4 1.4 1.4 2.4v36.1zm8.4-267.3c-1.7-.9-3.8-.9-5.5.1-1.7 1-2.7 2.8-2.7 4.7v139.7c0 2.1-1.7 3.8-3.8 3.8-.7 0-1.3-.2-1.9-.5l-22.8-13.1c-3.4-2-7.6-2-11 0l-91 52.5c-3.4 2-5.5 5.6-5.5 9.5v105.1c0 3.9 2.1 7.5 5.5 9.5l91 52.6c3.4 2 7.6 2 11 0l91-52.6c3.4-2 5.5-5.6 5.5-9.5v-262c0-4-2.2-7.7-5.7-9.6l-54.1-30.2zm303.2 230.3c3.4-2 5.5-5.6 5.5-9.5v-25.5c0-3.9-2.1-7.5-5.5-9.5l-90.5-52.5c-3.4-2-7.6-2-11 0l-91 52.5c-3.4 2-5.5 5.6-5.5 9.5v105.1c0 4 2.1 7.6 5.5 9.6l90.4 51.6c3.3 1.9 7.4 1.9 10.8.1l54.7-30.4c1.7-1 2.8-2.8 2.8-4.8s-1.1-3.8-2.8-4.8l-91.6-52.6c-1.7-1-2.8-2.8-2.8-4.7v-33c0-2 1-3.8 2.8-4.8l28.5-16.4c1.7-1 3.8-1 5.5 0l28.5 16.4c1.7 1 2.8 2.8 2.8 4.7v25.9c0 2 1.1 3.8 2.8 4.8 1.7 1 3.8 1 5.5 0l54.6-31.7z" style="fill-rule:evenodd;clip-rule:evenodd;fill:#333"/><path d="M1332.5 271.5c.7-.4 1.5-.4 2.1 0l17.5 10.1c.7.4 1.1 1.1 1.1 1.8v20.2c0 .8-.4 1.4-1.1 1.8l-17.5 10.1c-.7.4-1.5.4-2.1 0l-17.5-10.1c-.7-.4-1.1-1.1-1.1-1.8v-20.2c0-.8.4-1.4 1.1-1.8l17.5-10.1z" style="fill-rule:evenodd;clip-rule:evenodd;fill:#689f63"/><linearGradient id="a" gradientUnits="userSpaceOnUse" x1="893.856" y1="227.988" x2="759.41" y2="379.983"><stop offset=".3" style="stop-color:#3e863d"/><stop offset=".5" style="stop-color:#55934f"/><stop offset=".8" style="stop-color:#5aad45"/></linearGradient><path d="m830.1 179.9-90.5 52.3c-3.4 2-5.5 5.6-5.5 9.5v104.6c0 3.9 2.1 7.5 5.5 9.5l90.5 52.3c3.4 1.9 7.6 1.9 10.9 0l90.5-52.3c3.4-2 5.5-5.6 5.5-9.5V241.6c0-3.9-2.1-7.5-5.5-9.5L841 179.9c-3.4-1.9-7.5-1.9-10.9 0" style="fill:url(#a)"/><linearGradient id="b" gradientUnits="userSpaceOnUse" x1="769.046" y1="344.117" x2="929.14" y2="228.034"><stop offset=".57" style="stop-color:#3e863d"/><stop offset=".72" style="stop-color:#619857"/><stop offset="1" style="stop-color:#76ac64"/></linearGradient><path style="fill:url(#b)" d="M736.3 352.8c.9 1.1 1.9 2.1 3.2 2.8l77.7 44.9 12.9 7.4c1.9 1.1 4.1 1.6 6.3 1.4.7-.1 1.4-.2 2.1-.4L934 234.1c-.7-.8-1.6-1.5-2.5-2l-59.3-34.2-31.3-18c-.9-.5-1.8-.9-2.8-1.1l-101.8 174z"/><linearGradient id="c" gradientUnits="userSpaceOnUse" x1="739.811" y1="293.882" x2="936.818" y2="293.882"><stop offset=".16" style="stop-color:#6bbf47"/><stop offset=".38" style="stop-color:#79b461"/><stop offset=".47" style="stop-color:#75ac64"/><stop offset=".7" style="stop-color:#659e5a"/><stop offset=".9" style="stop-color:#3e863d"/></linearGradient><path style="fill:url(#c)" d="m936.8 348.1-99.2-169.5c-.7-.1-1.5-.2-2.2-.2h-1c-1.5.2-3 .6-4.4 1.4L739.8 232l97.3 177.3c1.4-.2 2.7-.6 3.9-1.3l90.5-52.3c2.7-1.6 4.6-4.2 5.2-7.3v-.3z"/></svg>