<svg xmlns="http://www.w3.org/2000/svg" viewBox="0 0 1920 673" style="enable-background:new 0 0 1920 673" xml:space="preserve"><path style="fill:#4e5156" d="M0 0h1920v673H0z"/><linearGradient id="a" gradientUnits="userSpaceOnUse" x1="893.75" y1="390.489" x2="1169.678" y2="390.489" gradientTransform="matrix(1 0 0 -1 0 674)"><stop offset="0" style="stop-color:#21d789"/><stop offset="1" style="stop-color:#07c3f2"/></linearGradient><path d="m1053.4 177.5 135.1 113.3-48.4 98.7L1058 367h-70.2l65.6-189.5z" style="fill:url(#a)"/><linearGradient id="b" gradientUnits="userSpaceOnUse" x1="565.443" y1="178.078" x2="1133.611" y2="597.5" gradientTransform="matrix(1 0 0 -1 0 674)"><stop offset=".011" style="stop-color:#fcf84a"/><stop offset=".112" style="stop-color:#a7eb62"/><stop offset=".206" style="stop-color:#5fe077"/><stop offset=".273" style="stop-color:#32da84"/><stop offset=".306" style="stop-color:#21d789"/><stop offset=".577" style="stop-color:#21d789"/><stop offset=".597" style="stop-color:#21d789"/><stop offset=".686" style="stop-color:#20d68c"/><stop offset=".763" style="stop-color:#1ed497"/><stop offset=".835" style="stop-color:#19d1a9"/><stop offset=".904" style="stop-color:#13ccc2"/><stop offset=".971" style="stop-color:#0bc6e1"/><stop offset="1" style="stop-color:#07c3f2"/></linearGradient><path style="fill:url(#b)" d="m916.9 251.1-26.5 138.4-2.6 47.7-65.6 28.5-94.1 9.9 28.5-300.1 169.6-70.9 104.7 68.9-114 77.6z"/><linearGradient id="c" gradientUnits="userSpaceOnUse" x1="790.001" y1="54.966" x2="884.765" y2="352.327" gradientTransform="matrix(1 0 0 -1 0 674)"><stop offset="0" style="stop-color:#21d789"/><stop offset=".164" style="stop-color:#24d788"/><stop offset=".305" style="stop-color:#2fd886"/><stop offset=".437" style="stop-color:#41da82"/><stop offset=".564" style="stop-color:#5adc7d"/><stop offset=".688" style="stop-color:#7ae077"/><stop offset=".809" style="stop-color:#a1e36e"/><stop offset=".925" style="stop-color:#cfe865"/><stop offset="1" style="stop-color:#f1eb5e"/></linearGradient><path style="fill:url(#c)" d="m916.9 251.1 12.6 267.6-42.4 49.7-159-92.7L858.6 281l58.3-29.9z"/><linearGradient id="d" gradientUnits="userSpaceOnUse" x1="915.26" y1="313.648" x2="1121.481" y2="590.907" gradientTransform="matrix(1 0 0 -1 0 674)"><stop offset="0" style="stop-color:#21d789"/><stop offset=".061" style="stop-color:#24d788"/><stop offset=".113" style="stop-color:#2fd886"/><stop offset=".162" style="stop-color:#41da82"/><stop offset=".209" style="stop-color:#5add7d"/><stop offset=".255" style="stop-color:#79e077"/><stop offset=".258" style="stop-color:#7ce076"/><stop offset=".499" style="stop-color:#8ce173"/><stop offset=".925" style="stop-color:#b2e56b"/></linearGradient><path style="fill:url(#d)" d="M1091.8 231.2h-161l142.4-126.5 18.6 126.5z"/><linearGradient id="e" gradientUnits="userSpaceOnUse" x1="1230.834" y1="278.216" x2="815.327" y2="282.064" gradientTransform="matrix(1 0 0 -1 0 674)"><stop offset=".387" style="stop-color:#fcf84a"/><stop offset=".536" style="stop-color:#ecf451"/><stop offset=".826" style="stop-color:#c2e964"/><stop offset=".925" style="stop-color:#b2e56b"/></linearGradient><path style="fill:url(#e)" d="m1191.8 519.3-141.7 48.4-188.1-53 55-263.6 21.9-19.9 114.6-10.6-10.6 115.3 91.4-35.1 57.5 218.5z"/><path d="M816.9 193.4H1103v286.1H816.9V193.4z"/><path d="M844.1 425.9h107.3v17.9H844.1v-17.9zm-1.3-194.7h48.4c28.5 0 45.7 16.6 45.7 41.1v.7c0 27.2-21.2 41.7-47.7 41.7h-19.9v35.1h-25.8V231.2h-.7zm47 59.6c13.2 0 20.5-7.9 20.5-17.9v-.7c0-11.9-7.9-17.9-21.2-17.9h-19.9v36.4c.1.1 20.6.1 20.6.1zm57.6 0c0-33.8 25.2-61.6 61.6-61.6 22.5 0 35.8 7.3 47 18.5l-16.6 19.2c-9.3-8.6-18.5-13.2-30.5-13.2-19.9 0-34.4 16.6-34.4 37.1v-.7c0 20.5 13.9 37.1 34.4 37.1 13.2 0 21.9-5.3 31.1-13.9l16.6 16.6c-11.9 13.2-25.8 21.2-48.4 21.2-35 .6-60.8-26.5-60.8-60.3" style="fill:#fff"/></svg>