<svg xmlns="http://www.w3.org/2000/svg" viewBox="0 0 1920 673" style="enable-background:new 0 0 1920 673" xml:space="preserve"><path style="fill:#d6dfe5" d="M0 0h1920v673H0z"/><defs><filter id="a" filterUnits="userSpaceOnUse" x="477.6" y="132.7" width="410" height="407.6"><feColorMatrix values="1 0 0 0 0 0 1 0 0 0 0 0 1 0 0 0 0 0 1 0"/></filter></defs><mask maskUnits="userSpaceOnUse" x="477.6" y="132.7" width="410" height="407.6" id="b"><path d="M768.4 538.6c6.6 2.6 14 2.3 20.3-.8l84.4-40.6c8.9-4.3 14.5-13.2 14.5-23.1V198.9c0-9.8-5.6-18.8-14.5-23.1l-84.4-40.6c-9.8-4.7-21.4-2.7-29.1 5L598.2 287.5l-70.3-53.4c-6.5-5-15.7-4.6-21.8 1l-22.6 20.5c-7.4 6.8-7.4 18.5 0 25.2l61 55.7-61 55.7c-7.4 6.8-7.4 18.5 0 25.2l22.6 20.5c6.1 5.5 15.2 5.9 21.8 1l70.3-53.4 161.5 147.3c2.5 2.5 5.4 4.5 8.7 5.8zm16.9-295.1-122.5 93 122.5 93v-186z" style="fill-rule:evenodd;clip-rule:evenodd;fill:#fff;filter:url(#a)"/></mask><g style="mask:url(#b)"><path d="m873.1 175.9-84.4-40.7c-9.8-4.7-21.5-2.7-29.1 4.9l-276.4 252c-7.4 6.8-7.4 18.5 0 25.2l22.6 20.5c6.1 5.5 15.3 5.9 21.8 1l332.8-252.5c11.2-8.5 27.2-.5 27.2 13.5v-1c0-9.7-5.6-18.7-14.5-22.9z" style="fill:#0065a9"/><path d="m873.1 497.1-84.4 40.7c-9.8 4.7-21.5 2.7-29.1-4.9l-276.4-252c-7.4-6.8-7.4-18.5 0-25.2l22.6-20.5c6.1-5.5 15.3-5.9 21.8-1l332.8 252.5c11.2 8.5 27.2.5 27.2-13.5v1c0 9.7-5.6 18.7-14.5 22.9z" style="fill:#007acc"/><path d="M788.7 537.8c-9.8 4.7-21.5 2.7-29.1-5 9.4 9.4 25.6 2.8 25.6-10.6V150.8c0-13.4-16.2-20.1-25.6-10.6 7.7-7.7 19.3-9.7 29.1-5l84.4 40.6c8.9 4.3 14.5 13.2 14.5 23.1v275.2c0 9.8-5.6 18.8-14.5 23.1l-84.4 40.6z" style="fill:#1f9cf0"/><linearGradient id="c" gradientUnits="userSpaceOnUse" x1="682.5" y1="541.316" x2="682.5" y2="133.681" gradientTransform="matrix(1 0 0 -1 0 674)"><stop offset="0" style="stop-color:#fff"/><stop offset="1" style="stop-color:#fff;stop-opacity:0"/></linearGradient><path d="M768.2 538.6c6.6 2.6 14 2.3 20.3-.8l84.4-40.6c8.9-4.3 14.5-13.2 14.5-23.1V198.9c0-9.8-5.6-18.8-14.5-23.1l-84.4-40.6c-9.8-4.7-21.4-2.7-29.1 5L597.9 287.5l-70.3-53.4c-6.5-5-15.7-4.6-21.8 1l-22.6 20.5c-7.4 6.8-7.4 18.5 0 25.2l61 55.7-61 55.7c-7.4 6.8-7.4 18.5 0 25.2l22.6 20.5c6.1 5.5 15.2 5.9 21.8 1l70.3-53.4 161.5 147.3c2.5 2.5 5.5 4.5 8.8 5.8zM785 243.5l-122.5 93 122.5 93v-186z" style="opacity:.25;fill-rule:evenodd;clip-rule:evenodd;fill:url(#c);enable-background:new"/></g><path d="M1234.8 129.3c-16.9.1-33 1.5-47.2 4-41.9 7.4-49.5 22.9-49.5 51.4v37.7h98.9V235h-136c-28.7 0-53.9 17.3-61.8 50.1-9.1 37.7-9.5 61.2 0 100.5 7 29.3 23.8 50.1 52.6 50.1h34v-45.2c0-32.6 28.2-61.4 61.8-61.4h98.8c27.5 0 49.5-22.6 49.5-50.2v-94.2c0-26.8-22.6-46.9-49.5-51.4-17.1-2.8-34.7-4.1-51.6-4zm-53.5 30.3c10.2 0 18.6 8.5 18.6 18.9 0 10.4-8.3 18.8-18.6 18.8-10.2 0-18.6-8.4-18.6-18.8.1-10.4 8.4-18.9 18.6-18.9z" style="fill:#4888bb"/><path d="M1348.1 235v43.9c0 34-28.9 62.7-61.8 62.7h-98.8c-27.1 0-49.5 23.2-49.5 50.2V486c0 26.8 23.3 42.6 49.5 50.2 31.3 9.2 61.3 10.9 98.8 0 24.9-7.2 49.5-21.7 49.5-50.2v-37.7H1237v-12.6h148.2c28.7 0 39.5-20 49.5-50.1 10.3-31 9.9-60.8 0-100.5-7.1-28.6-20.7-50.1-49.5-50.1h-37.1zm-55.5 238.4c10.2 0 18.6 8.4 18.6 18.8s-8.3 18.9-18.6 18.9c-10.2 0-18.6-8.5-18.6-18.9 0-10.4 8.4-18.8 18.6-18.8z" style="fill:#ffe364"/></svg>