<svg xmlns="http://www.w3.org/2000/svg" viewBox="0 0 1920 673" style="enable-background:new 0 0 1920 673" xml:space="preserve"><path style="fill:#7e858e" d="M0 0h1920v673H0z"/><linearGradient id="a" gradientUnits="userSpaceOnUse" x1="624.153" y1="384.269" x2="867.688" y2="384.269" gradientTransform="matrix(1 0 0 -1 0 674)"><stop offset="0" style="stop-color:#21d789"/><stop offset="1" style="stop-color:#07c3f2"/></linearGradient><path d="m765.1 196.2 119.3 100-42.7 87.1-72.5-19.9h-62l57.9-167.2z" style="fill:url(#a)"/><linearGradient id="b" gradientUnits="userSpaceOnUse" x1="334.386" y1="196.793" x2="835.855" y2="566.978" gradientTransform="matrix(1 0 0 -1 0 674)"><stop offset=".011" style="stop-color:#fcf84a"/><stop offset=".112" style="stop-color:#a7eb62"/><stop offset=".206" style="stop-color:#5fe077"/><stop offset=".273" style="stop-color:#32da84"/><stop offset=".306" style="stop-color:#21d789"/><stop offset=".577" style="stop-color:#21d789"/><stop offset=".597" style="stop-color:#21d789"/><stop offset=".686" style="stop-color:#20d68c"/><stop offset=".763" style="stop-color:#1ed497"/><stop offset=".835" style="stop-color:#19d1a9"/><stop offset=".904" style="stop-color:#13ccc2"/><stop offset=".971" style="stop-color:#0bc6e1"/><stop offset="1" style="stop-color:#07c3f2"/></linearGradient><path style="fill:url(#b)" d="m644.6 261.1-23.4 122.2-2.3 42.1-57.9 25.1-83 8.8 25.1-264.8 149.7-62.6 92.4 60.8-100.6 68.4z"/><linearGradient id="c" gradientUnits="userSpaceOnUse" x1="532.583" y1="88.134" x2="616.222" y2="350.587" gradientTransform="matrix(1 0 0 -1 0 674)"><stop offset="0" style="stop-color:#21d789"/><stop offset=".164" style="stop-color:#24d788"/><stop offset=".305" style="stop-color:#2fd886"/><stop offset=".437" style="stop-color:#41da82"/><stop offset=".564" style="stop-color:#5adc7d"/><stop offset=".688" style="stop-color:#7ae077"/><stop offset=".809" style="stop-color:#a1e36e"/><stop offset=".925" style="stop-color:#cfe865"/><stop offset="1" style="stop-color:#f1eb5e"/></linearGradient><path style="fill:url(#c)" d="m644.6 261.1 11.1 236.2-37.4 43.8L478 459.3l115.2-171.9 51.4-26.3z"/><linearGradient id="d" gradientUnits="userSpaceOnUse" x1="643.138" y1="316.448" x2="825.149" y2="561.158" gradientTransform="matrix(1 0 0 -1 0 674)"><stop offset="0" style="stop-color:#21d789"/><stop offset=".061" style="stop-color:#24d788"/><stop offset=".113" style="stop-color:#2fd886"/><stop offset=".162" style="stop-color:#41da82"/><stop offset=".209" style="stop-color:#5add7d"/><stop offset=".255" style="stop-color:#79e077"/><stop offset=".258" style="stop-color:#7ce076"/><stop offset=".499" style="stop-color:#8ce173"/><stop offset=".925" style="stop-color:#b2e56b"/></linearGradient><path style="fill:url(#d)" d="M799 243.5H656.9l125.7-111.7L799 243.5z"/><linearGradient id="e" gradientUnits="userSpaceOnUse" x1="921.665" y1="285.175" x2="554.935" y2="288.572" gradientTransform="matrix(1 0 0 -1 0 674)"><stop offset=".387" style="stop-color:#fcf84a"/><stop offset=".536" style="stop-color:#ecf451"/><stop offset=".826" style="stop-color:#c2e964"/><stop offset=".925" style="stop-color:#b2e56b"/></linearGradient><path style="fill:url(#e)" d="m887.2 497.9-125.1 42.7-166-46.8 48.5-232.7 19.3-17.5 101.1-9.4-9.4 101.7 80.7-31 50.9 193z"/><path d="M556.4 210.2h252.5v252.5H556.4V210.2z"/><path d="M580.3 415.4H675v15.8h-94.7v-15.8zm-1.2-171.9h42.7c25.1 0 40.3 14.6 40.3 36.2v.6c0 24-18.7 36.8-42.1 36.8h-17.5v31h-22.8V243.5h-.6zm41.6 52.7c11.7 0 18.1-7 18.1-15.8v-.6c0-10.5-7-15.8-18.7-15.8h-17.5v32.2h18.1zm50.8 0c0-29.8 22.2-54.4 54.4-54.4 19.9 0 31.6 6.4 41.5 16.4l-14.6 17c-8.2-7.6-16.4-11.7-26.9-11.7-17.5 0-30.4 14.6-30.4 32.7v-.6c0 18.1 12.3 32.7 30.4 32.7 11.7 0 19.3-4.7 27.5-12.3l14.6 14.6c-10.5 11.7-22.8 18.7-42.7 18.7-31 .6-53.8-23.3-53.8-53.1m362.2 93.3h-71.6v-14.2l33.8-36c4.6-5.1 8.1-9.5 10.3-13.3 2.2-3.8 3.3-7.4 3.3-10.8 0-4.6-1.2-8.3-3.5-10.9-2.3-2.7-5.7-4-10-4-4.7 0-8.4 1.6-11.1 4.8-2.7 3.2-4.1 7.5-4.1 12.7H960c0-6.4 1.5-12.2 4.6-17.4 3-5.3 7.3-9.4 12.9-12.4 5.6-3 11.8-4.5 18.9-4.5 10.8 0 19.1 2.6 25.1 7.8 6 5.2 8.9 12.5 8.9 21.9 0 5.2-1.3 10.4-4 15.8s-7.3 11.6-13.8 18.7l-23.8 25h44.9v16.8zm92-58.5h25.9v18.7h-25.9V379H1106v-29.3h-26V331h26v-28.1h19.7V331zm145.8 58.5h-71.6v-14.2l33.8-36c4.6-5.1 8.1-9.5 10.3-13.3 2.2-3.8 3.3-7.4 3.3-10.8 0-4.6-1.2-8.3-3.5-10.9-2.3-2.7-5.7-4-10-4-4.7 0-8.4 1.6-11.1 4.8-2.7 3.2-4.1 7.5-4.1 12.7h-20.8c0-6.4 1.5-12.2 4.6-17.4 3-5.3 7.3-9.4 12.9-12.4 5.6-3 11.8-4.5 18.9-4.5 10.8 0 19.1 2.6 25.1 7.8 6 5.2 8.9 12.5 8.9 21.9 0 5.2-1.3 10.4-4 15.8s-7.3 11.6-13.8 18.7l-23.8 25h44.9v16.8zm116.1-53.6h-64.2V319h64.2v16.9zm0 31.1h-64.2v-16.9h64.2V367zm115.3-16.9h11.8v16.7h-11.8v22.6h-20.7v-22.6h-42.8l-.9-13.1 43.6-68.8h21v65.2zm-43.8 0h23.1v-36.9l-1.4 2.4-21.7 34.5z" style="fill:#fff"/></svg>