<svg xmlns="http://www.w3.org/2000/svg" viewBox="0 0 1920 673" style="enable-background:new 0 0 1920 673" xml:space="preserve"><style>.st1{fill:#292995}.st2{opacity:.5;fill:none;stroke:#fff;stroke-width:2;stroke-linecap:round;stroke-linejoin:round;stroke-miterlimit:10;enable-background:new}.st3{fill:#d5af16}.st4{fill:#41a041}.st5{fill:#ff3c3c}</style><path style="fill:#f4f4f4" d="M0 0h1920v673H0z"/><path class="st1" d="M1016 347.5v218.3l193-26.3 7-204.5-200 12.5zm0 218.3-79-79.3v-175l79 36v218.3z"/><path class="st1" d="m1016 347.5-79-36 182-7 97 30.5-200 12.5z"/><path class="st2" d="M1180.7 337.2 1016 347.5v199.4"/><path class="st3" d="m763 582.5-4-224 219-15v212l-215 27z"/><path class="st3" d="m763 582.5-41-69-5-192 42 37 4 224z"/><path class="st3" d="m759 358.5-42-37 195-10 66 32-219 15z"/><path class="st2" d="M762.6 560.1 759 358.5l191.1-13.1"/><path class="st4" d="M1000.1 317.6 950 301.8l-4-211.3h55l-.9 227.1z"/><path class="st4" d="m1000 90.5-.3 227.3 193-10 6.5-217.3H1000z"/><path class="st2" d="m1000 100.8-.3 203.7"/><path class="st5" d="M755.9 330.8 751 90.5h225v229.3l-220.1 11z"/><path class="st5" d="m756 330.8-46-32-6-208.3h47.1l4.9 240.3z"/><path class="st2" d="m755.6 316.8-4.4-216"/></svg>