<svg xmlns="http://www.w3.org/2000/svg" viewBox="0 0 1920 673" style="enable-background:new 0 0 1920 673" xml:space="preserve"><style>.st1{fill:#f7f7f4}.st1,.st2,.st3{stroke:#ccc;stroke-width:.3787;stroke-linejoin:bevel;stroke-miterlimit:4.2667}.st2{fill:#efeeea}.st3{fill:#fff}.st4{fill:#646464}.st5{fill:#ffd242;stroke:#ccc;stroke-width:.3787;stroke-linejoin:bevel;stroke-miterlimit:4.2667}.st6{fill:#fff}.st8,.st9{fill:#3775a9;stroke:#ccc;stroke-width:.3787;stroke-linejoin:bevel;stroke-miterlimit:4.2667}.st9{fill:#2f6491}</style><path style="fill:#83c986" d="M0 0h1920v673H0z"/><path class="st1" d="m678.8 413.7 43.5 15.9 44.2-16.1-43.5-15.9-44.2 16.1zm43.7-35.8 43.5 15.9 44.2-16.1-43.5-15.9-44.2 16.1z"/><path class="st2" d="m722.5 377.9 43.5 15.9V445l-43.5-15.8v-51.3z"/><path class="st1" d="m635.1 481.3 43.5 15.9 44.2-16.1-43.5-15.9-44.2 16.1z"/><path class="st2" d="m635.1 481.3 43.5 15.9v51.2l-43.5-15.8v-51.3z"/><path class="st1" d="m635.1 408.5 43.5 15.9 44.2-16.1-43.5-15.9-44.2 16.1z"/><path class="st3" d="M678.6 424.4v51.2l44.2-16.1v-51.2l-44.2 16.1z"/><path class="st2" d="m635.1 408.5 43.5 15.9v51.2l-43.5-15.8v-51.3z"/><path class="st4" d="M679.3 365c-4.3.1-7.8 3.6-7.8 7.9 0 .5.1 1 .1 1.5l-32.9 40.3 21.4 26.2-10.8-26.2 28-34.2c.7.2 1.3.3 2 .3s1.3-.1 2-.3l14.9 18.2 15 5.5-24.2-29.9c.1-.5.1-1 .1-1.5 0-4.2-3.4-7.7-7.8-7.8zm6-20.4c.1-3.3-2.5-6.1-5.8-6.2-3.3-.1-6.1 2.5-6.2 5.8v9.5c.1 3.3 2.9 5.9 6.2 5.8 3.2-.1 5.7-2.6 5.8-5.8v-9.1zm-2.7 0v9.1c0 1.8-1.4 3.2-3.2 3.2-1.8 0-3.2-1.4-3.2-3.2v-9.1c0-1.8 1.4-3.2 3.2-3.2 1.7-.1 3.2 1.4 3.2 3.2zm2.7-31.4c.1-3.3-2.5-6.1-5.8-6.2-3.3-.1-6.1 2.5-6.2 5.8v9.5c.1 3.3 2.9 5.9 6.2 5.8 3.2-.1 5.7-2.6 5.8-5.8v-9.1zm-2.7 0v9.1c0 1.8-1.4 3.2-3.2 3.2-1.8 0-3.2-1.4-3.2-3.2v-9.1c0-1.8 1.4-3.2 3.2-3.2 1.7-.1 3.2 1.4 3.2 3.2z"/><path class="st4" d="M680.8 324.4v18.2c0 .8-.7 1.5-1.5 1.5s-1.5-.7-1.5-1.5v-18.2c0-.8.7-1.5 1.5-1.5s1.5.7 1.5 1.5zm0 31.3v18.2c0 .8-.7 1.5-1.5 1.5s-1.5-.7-1.5-1.5v-18.2c0-.8.7-1.5 1.5-1.5.8.1 1.5.7 1.5 1.5zm0-62.8v18.2c0 .8-.7 1.5-1.5 1.5s-1.5-.7-1.5-1.5v-18.2c0-.8.7-1.5 1.5-1.5s1.5.7 1.5 1.5z"/><path class="st2" d="m678.8 497.2 43.5 15.9v51.2l-43.5-15.9v-51.2z"/><path class="st1" d="m678.8 445.5 43.5 15.9 44.2-16.1-43.5-15.9-44.2 16.1z"/><path class="st2" d="m678.8 445.5 43.5 15.9v51.2l-43.5-15.9v-51.2z"/><path class="st3" d="M897.3 481.2v51.2l44.2-16.1v-51.2l-44.2 16.1z"/><path class="st5" d="M853.6 497.2v51.2l44.2-16.1v-51.2l-44.2 16.1z"/><path class="st6" d="M889.7 509.6c0 5-3.8 10.4-8.5 12.1-4.7 1.7-8.5-1-8.5-5.9 0-5 3.8-10.4 8.5-12.1 4.7-1.7 8.5.9 8.5 5.9z"/><path class="st5" d="M809.8 513.1v51.2l44.2-16.1V497l-44.2 16.1z"/><path class="st3" d="M766.1 529v51.2l44.2-16.1v-51.2L766.1 529z"/><path class="st2" d="M722.5 513.1 766 529v51.2l-43.5-15.9v-51.2z"/><path class="st5" d="M897.3 429.6v51.2l44.2-16.1v-51.2l-44.2 16.1z"/><path d="m853.7 362 43.5 15.9 44.2-16.1-43.5-15.9-44.2 16.1z" style="fill:#ffc91d;stroke:#ccc;stroke-width:.3787;stroke-linejoin:bevel;stroke-miterlimit:4.2667"/><path class="st5" d="M897.3 377.9v51.2l44.2-16.1v-51.2l-44.2 16.1zm-43.7 67.6v51.2l44.2-16.1v-51.2l-44.2 16.1z"/><path class="st8" d="M853.6 393.8V445l44.2-16.1v-51.2l-44.2 16.1z"/><path class="st9" d="m810 326.2 43.5 15.9 44.2-16.1-43.5-15.8-44.2 16z"/><path class="st8" d="M853.6 342.1v51.2l44.2-16.1V326l-44.2 16.1z"/><path class="st5" d="M809.8 461.4v51.2l44.2-16.1v-51.2l-44.2 16.1z"/><path class="st8" d="M809.8 409.7v51.2l44.2-16.1v-51.2l-44.2 16.1zm-43.7 67.6v51.2l44.2-16.1v-51.2l-44.2 16.1z"/><path class="st9" d="m722.5 461.4 43.5 15.8v51.2l-43.5-15.9v-51.1zm0-51.7 43.5 15.9 44.2-16.1-43.5-15.9-44.2 16.1z"/><path class="st8" d="M766.1 425.6v51.2l44.2-16.1v-51.2l-44.2 16.1z"/><path class="st9" d="m722.5 409.7 43.5 15.9v51.2l-43.5-15.9v-51.2zm43.8-67.6 43.5 15.9 44.2-16.1-43.5-15.8-44.2 16z"/><path class="st8" d="M809.8 358v51.2l44.2-16.1v-51.2L809.8 358z"/><path class="st9" d="m766.3 342.1 43.5 15.9v51.2l-43.5-15.9v-51.2z"/><path class="st6" d="M834.8 374.4c0 5-3.8 10.4-8.5 12.1-4.7 1.7-8.5-1-8.5-5.9 0-5 3.8-10.4 8.5-12.1 4.7-1.7 8.5.9 8.5 5.9z"/><path class="st4" d="M737.2 201.6c0-27-7.7-40.9-23.1-41.6-6.1-.3-12.2.7-17.9 2.9-4.6 1.7-7.8 3.3-9.4 5v64.4c9.8 6.2 18.6 9.1 26.2 8.6 16.1-1 24.2-14.1 24.2-39.3zm19 1.2c0 13.7-3.2 25.1-9.7 34.2-7.2 10.2-17.2 15.5-30 15.8-9.6.3-19.6-2.7-29.8-9v58.6l-16.5-5.9v-130c2.7-3.3 6.2-6.2 10.4-8.6 9.8-5.7 21.8-8.7 35.8-8.8l.2.2c12.8-.2 22.8 5.1 29.7 15.8 6.6 9.7 9.9 22.3 9.9 37.7zm100.9 38.4c0 18.4-1.8 31.1-5.5 38.2-3.7 7.1-10.8 12.7-21.2 17-8.4 3.3-17.6 5.1-27.4 5.4l-2.7-10.4c10-1.4 17-2.7 21-4.1 8-2.7 13.5-6.9 16.5-12.4 2.4-4.5 3.6-13.2 3.6-26v-4.3c-11.1 5.1-23.3 7.7-35.5 7.7-8.1 0-15.3-2.5-21.5-7.7-6.9-5.6-10.4-12.7-10.4-21.3v-68.7l16.5-5.7v69.2c0 7.4 2.4 13.1 7.2 17.1 4.8 4 11 5.9 18.5 5.8 7.6-.2 15.7-3.1 24.3-8.8v-80.7H857v89.7zm64.5 10.6c-2 .2-3.8.2-5.4.2-9.3 0-16.6-2.2-21.8-6.7-5.2-4.5-7.8-10.6-7.8-18.5v-65.1h-11.3v-10.4h11.3v-27.6l16.5-5.9v33.5h18.6v10.4h-18.6v64.6c0 6.2 1.7 10.6 5 13.2 2.9 2.1 7.4 3.3 13.6 3.6v8.7h-.1zm100-1.3h-16.5v-63.8c0-6.5-1.5-12.1-4.5-16.7-3.5-5.3-8.3-7.9-14.6-7.9-7.6 0-17 4-28.4 12v76.4h-16.5V98.1l16.5-5.2v69.4c10.6-7.7 22.1-11.5 34.6-11.5 8.7 0 15.8 2.9 21.3 8.8 5.4 5.9 8.1 13.2 8.1 21.9v69zm87.8-51.5c0-10.4-2-18.9-5.9-25.7-4.7-8.3-11.9-12.6-21.7-13.1-18.1 1-27.1 14-27.1 38.9 0 11.4 1.9 20.9 5.7 28.6 4.8 9.7 12.1 14.5 21.8 14.4 18.1-.1 27.2-14.5 27.2-43.1zm18.1.1c0 14.8-3.8 27.1-11.3 36.9-8.3 11-19.8 16.5-34.4 16.5-14.5 0-25.8-5.5-33.9-16.5-7.4-9.8-11.1-22.1-11.1-36.9 0-13.9 4-25.6 12-35.1 8.4-10.1 19.5-15.1 33.3-15.1 13.7 0 24.9 5.1 33.5 15.1 7.9 9.6 11.9 21.3 11.9 35.1zm94.7 51.4h-16.5v-67.4c0-7.4-2.2-13.2-6.7-17.3-4.4-4.1-10.4-6.1-17.8-6-7.8.1-15.3 2.7-22.4 7.7v83h-16.5v-85c9.5-6.9 18.3-11.4 26.2-13.6 7.5-2 14.2-2.9 19.9-2.9 3.9 0 7.6.4 11.1 1.1 6.5 1.5 11.8 4.3 15.8 8.4 4.5 4.5 6.8 9.9 6.8 16.3v75.7h.1zm32.1-117.3h2.8v-17.8h6.7v-2.1h-16.3v2.1h6.7v17.8m12.2 0h2.4V117l5.3 16.3h2.7l5.5-16.2v16.2h2.6v-19.9h-3.5l-6 17.1-5.1-17.1h-3.9v19.8M972.2 324.5h8.4v-17.3h7.5c10.2 0 18-4.8 18-15.3 0-11-7.6-14.6-18-14.6h-15.9v47.2zm8.4-24.1V284h6.9c6.9 0 10.4 1.9 10.4 7.9 0 5.8-3.4 8.6-10.4 8.6h-6.9zm29.4 14.5c0 6.2 4.3 10.4 10.5 10.4 4.2 0 7.8-2.1 11-4.8h.2l.6 3.9h6.8v-21c0-9.9-4.3-15.3-13.2-15.3-5.6 0-10.6 2.2-14.5 4.6l3 5.6c3.1-1.9 6.4-3.5 10-3.5 4.8 0 6.3 3.2 6.4 6.9-14.5 1.7-20.8 5.7-20.8 13.2zm8-.6c0-3.5 3.2-6.1 12.8-7.3v7.9c-2.6 2.4-4.8 3.9-7.7 3.9-3 0-5.1-1.3-5.1-4.5zm28.9-7.5c0 11.8 7.4 18.5 17.1 18.5 4 0 8.3-1.6 11.6-4.5l-3.5-5.3c-1.9 1.6-4.4 3-7.3 3-5.6 0-9.4-4.7-9.4-11.8 0-7.1 4-11.8 9.7-11.8 2.2 0 4.1.9 6 2.6l4-5.3c-2.4-2.3-5.8-4.1-10.4-4.1-9.5.1-17.8 6.9-17.8 18.7zm35.7 17.7h8.1v-9l5.6-6.3 9.1 15.4h9l-13.3-21 12.1-14.4h-9.1l-13.1 16.3h-.2v-31.8h-8.1l-.1 50.8zm35.4-9.6c0 6.2 4.3 10.4 10.5 10.4 4.2 0 7.8-2.1 11-4.8h.2l.6 3.9h6.8v-21c0-9.9-4.3-15.3-13.2-15.3-5.6 0-10.6 2.2-14.5 4.6l3 5.6c3.1-1.9 6.4-3.5 10-3.5 4.8 0 6.3 3.2 6.4 6.9-14.5 1.7-20.8 5.7-20.8 13.2zm8.1-.6c0-3.5 3.2-6.1 12.8-7.3v7.9c-2.6 2.4-4.8 3.9-7.7 3.9-3 0-5.1-1.3-5.1-4.5zm35.7 15.3c0-1.7.9-3.2 2.7-4.7 1.4.4 2.9.5 4.8.5h4.8c4 0 6.3.8 6.3 3.5 0 3-3.9 5.7-9.6 5.7-5.5.1-9-1.8-9-5zm-6.9 1.3c0 6.2 6.3 9.2 14.7 9.2 11.5 0 18.9-5.5 18.9-12.5 0-6.1-4.5-8.7-13-8.7h-6.3c-4.3 0-5.8-1.2-5.8-3.2 0-1.6.6-2.5 1.7-3.4 1.5.6 3.2.9 4.8.9 7.5 0 13.4-4.2 13.4-12 0-2.5-.9-4.6-2-6h6.5V289h-12.7c-1.7-.6-3.4-.9-5.2-.9-7.4 0-14 4.5-14 12.7 0 4.2 2.2 7.6 4.6 9.4v.3c-2 1.4-3.9 3.8-3.9 6.6 0 2.9 1.4 4.8 3.2 5.9v.3c-3.1 2-4.9 4.6-4.9 7.6zM1170 308c-3.5 0-6.2-2.6-6.2-7.1s2.7-7 6.2-7 6.1 2.6 6.1 7c.1 4.5-2.7 7.1-6.1 7.1zm21.3-1.2c0 11.7 7.6 18.5 17.5 18.5 4.5 0 8.7-1.6 12.1-3.8l-2.8-5.2c-2.6 1.7-5.2 2.6-8.2 2.6-5.7 0-9.7-3.6-10.5-10h22.5c.2-.9.4-2.3.4-3.9 0-9.9-5.1-16.8-14.6-16.8-8.4 0-16.4 7-16.4 18.6zm8-3.2c.7-5.9 4.3-9 8.5-9 4.8 0 7.2 3.4 7.2 9h-15.7zM972.2 398h8.4v-47.2h-8.4V398zm19.6 0h8.3v-24.7c3-2.9 5-4.4 8.1-4.4 3.9 0 5.6 2.2 5.6 8V398h8.3v-22.2c0-8.9-3.3-14.1-10.9-14.1-4.8 0-8.4 2.5-11.6 5.6h-.3l-.6-4.8h-6.9V398zm38.2-17.7c0 11.7 5.7 18.5 14.6 18.5 3.8 0 7.4-2.1 10-4.7h.3l.6 3.8h6.9V347h-8.3v12.8l.3 5.7c-2.7-2.4-5.3-3.9-9.3-3.9-7.8.1-15.1 7.2-15.1 18.7zm8.6 0c0-7.4 3.7-11.7 8.2-11.7 2.4 0 4.8.8 7.2 3v16.5c-2.4 2.7-4.7 4-7.4 4-5.1-.1-8-4.2-8-11.8zm32 0c0 11.7 7.6 18.5 17.5 18.5 4.5 0 8.7-1.6 12.1-3.8l-2.8-5.2c-2.6 1.7-5.2 2.6-8.2 2.6-5.7 0-9.7-3.6-10.5-10h22.5c.2-.9.4-2.3.4-3.9 0-9.9-5-16.8-14.6-16.8-8.4 0-16.4 7.1-16.4 18.6zm8-3.1c.7-5.9 4.3-9 8.5-9 4.8 0 7.2 3.4 7.2 9h-15.7zm25.8 20.8h8.7l3.8-7c1-2.2 2.1-4.3 3.1-6.3h.3c1.2 2 2.5 4.2 3.6 6.3l4.3 7h8.9l-11.3-17.5 10.5-17.9h-8.6l-3.4 6.7c-.9 1.9-1.9 4-2.7 6h-.3c-1.1-2-2.2-4-3.2-6l-4-6.7h-8.9l10.5 16.9-11.3 18.5z"/></svg>