<svg xmlns="http://www.w3.org/2000/svg" viewBox="0 0 1920 673" style="enable-background:new 0 0 1920 673" xml:space="preserve"><path style="fill:#fdfded" d="M0 0h1920v673H0z"/><path d="m897.3 216.5-87.3 240h-29.3l-68.3-187-68 187-.7-.3.3.3h-29l-87.3-240H566l63.7 175 63.7-175h38.3l63.7 175 63.7-175h38.2zm5.7 41.1h29.8v199H903v-199zm229.6 0h29.8v199H1127L993.3 297.3v159.2h-29.8v-199h35.4l133.7 159.2V257.6zm259.7 47.8h-29.8v-11.9c0-3.3-2.8-6.1-6.1-6.1h-127.1c-3.3 0-6.1 2.8-6.1 6.1v127.1c0 3.3 2.8 6.1 6.1 6.1h127.1c3.3 0 6.1-2.8 6.1-6.1v-43.1h-47v-29.8h76.8v72.9c0 19.9-16 35.9-35.9 35.9h-127.1c-19.9 0-35.9-16-35.9-35.9V293.5c0-19.9 16-35.9 35.9-35.9h127.1c19.9 0 35.9 16 35.9 35.9v11.9z" style="fill:#876ea9"/></svg>