<svg xmlns="http://www.w3.org/2000/svg" viewBox="0 0 1920 673" style="enable-background:new 0 0 1920 673" xml:space="preserve"><path style="fill:#647c64" d="M0 0h1920v673H0z"/><path d="M647 282.5h-9.1c-2.4-7.1-6.3-14.7-11.6-22.8-5.3-8.1-10.3-12.5-14.8-13.1-2.5-.3-5.6-.6-9.2-.8-3.7-.2-6.8-.4-9.5-.4h-5.5v130.3c0 2.8.5 5.3 1.5 7.4 1 2.1 3 3.8 6 5.1 1.8.7 4.6 1.4 8.4 2.2 3.8.7 7 1.3 9.7 1.6v9.1h-92.6V392c2.3-.2 5.4-.6 9.5-1s6.9-1 8.4-1.6c3-1.2 5.1-2.9 6.1-5s1.5-4.6 1.5-7.5V245.4h-5.5c-2.6 0-5.8.1-9.5.4-3.7.2-6.7.5-9.2.8-4.5.6-9.4 5-14.8 13.1-5.3 8.1-9.2 15.7-11.6 22.8h-9.1V235h161v47.5zm160.5 118.6h-70.4v-8.5c1.6-.2 3.4-.4 5.5-.6s3.7-.6 4.7-1.2c1.6-.9 2.8-2.1 3.5-3.7.7-1.6 1-4.1 1-7.3V325c0-8-1.5-14.1-4.5-18-3-4-7.3-6-12.8-6-3.1 0-6 .5-8.7 1.4-2.7.9-5.3 2.3-7.9 4.1-2.3 1.6-4.1 3.2-5.4 4.8-1.4 1.6-2.5 3.1-3.5 4.3v62.9c0 2.9.4 5.2 1.1 6.9.7 1.7 2 3.1 4 4.2 1.2.7 2.7 1.3 4.6 1.9 1.9.5 3.8.9 5.6 1.2v8.5h-71.4v-8.5l6-.6c1.9-.2 3.6-.6 5.1-1.2 2.5-.9 4.2-2.3 5.1-4 .9-1.8 1.4-4.1 1.4-7V249.3c0-2.5-.6-5.2-1.8-8-1.2-2.8-2.8-4.9-4.9-6.3-1.6-1-3.8-1.8-6.8-2.4-3-.6-5.6-1-8-1.1V223l58.3-3 1.8 1.9v80.6h.5c3-2.7 5.6-5.1 8-7.2 2.4-2.1 5.3-4.3 8.7-6.5 2.9-1.9 6.6-3.5 11.3-4.8 4.6-1.3 9.6-2 15-2 12.6 0 22.1 3.6 28.5 10.9 6.4 7.3 9.5 16.8 9.5 28.7V379c0 2.9.4 5.2 1.3 6.9.9 1.7 2.5 3.1 4.8 4.1 1.4.6 3 1.2 4.7 1.6 1.7.5 3.8.9 6.3 1.2v8.3zm130.4-102.3c5.8 5.4 10.2 11.8 13.2 19.3s4.6 15.6 4.6 24.4c0 8.7-1.5 16.8-4.5 24.5-3 7.7-7.4 14.3-13.2 19.7-6.2 5.9-13.5 10.3-22.1 13.5-8.5 3.1-18.3 4.7-29.3 4.7-9.5 0-18.3-1.4-26.3-4.1-8-2.7-15.1-6.8-21.3-12.3-5.9-5.2-10.6-11.7-14.1-19.4-3.4-7.7-5.2-16.3-5.2-25.8 0-9.4 1.5-17.7 4.5-25 3-7.3 7.5-13.8 13.5-19.5 5.8-5.5 12.9-9.7 21.4-12.7 8.5-3 17.9-4.5 28.4-4.5 10.9 0 20.6 1.5 28.9 4.5 8.4 3 15.5 7.2 21.5 12.7zm-30 81.1c1.7-4.4 3-9.7 3.8-15.9.8-6.2 1.2-13.5 1.2-21.8 0-5.5-.4-11.7-1.2-18.7-.8-7-2-12.6-3.5-16.6-1.9-4.9-4.5-8.8-7.8-11.6-3.3-2.8-7.5-4.2-12.6-4.2-5.5 0-10 1.5-13.3 4.6-3.3 3-5.9 7-7.7 11.8-1.6 4.5-2.8 9.7-3.4 15.6-.6 6-.9 12.2-.9 18.7 0 8.5.3 15.6.8 21.1.5 5.6 1.9 11.2 4 16.8 1.8 4.8 4.4 8.7 7.7 11.5 3.4 2.8 7.6 4.2 12.8 4.2 4.7 0 8.7-1.3 12.1-3.9 3.4-2.6 6-6.5 8-11.6zm217.5 21.2H1055v-8.5c1.5-.2 3.3-.4 5.4-.6 2.1-.2 3.7-.6 4.8-1.2 1.6-.9 2.8-2.1 3.5-3.7.7-1.6 1.1-4.1 1.1-7.3V325c0-8-1.5-14-4.4-18-2.9-4-7.3-6-13-6-3.1 0-6 .5-8.7 1.4-2.7.9-5.3 2.3-7.9 4.1-2.3 1.6-4.1 3.2-5.5 4.8-1.4 1.6-2.5 3.1-3.5 4.3v62.9c0 2.7.4 5 1.2 6.9.8 1.8 2.1 3.2 3.9 4.2 1.2.7 2.8 1.3 4.7 1.9 1.9.5 3.7.9 5.5 1.2v8.5h-71.2v-8.5c2-.2 3.9-.4 5.9-.6 2-.3 3.7-.6 5.1-1.1 2.5-.9 4.2-2.2 5.2-4 .9-1.8 1.4-4.1 1.4-7v-68.2c0-2.4-.6-4.8-1.9-7.1-1.2-2.3-2.9-4.3-4.9-5.7-1.4-.9-3.2-1.7-5.3-2.3-2.1-.6-4.5-1.1-7.1-1.3v-8.5l55.9-3 1.8 1.8v17h.5c2.2-2 4.8-4.3 8-7 3.1-2.7 6-5 8.7-6.7 2.9-1.9 6.7-3.5 11.4-4.8 4.7-1.3 9.7-2 15-2 12.7 0 22.3 3.6 28.6 10.8 6.4 7.2 9.5 16.8 9.5 28.8v57.4c0 2.9.4 5.2 1.3 6.9.9 1.7 2.5 3.1 4.8 4.1 1.2.5 2.8 1.1 4.6 1.6 1.8.5 3.9.9 6.3 1.2v8.1zm165.4 0h-70.4v-8.5c1.5-.2 3.3-.4 5.4-.6 2.1-.2 3.7-.6 4.8-1.2 1.6-.9 2.8-2.1 3.5-3.7.7-1.6 1.1-4.1 1.1-7.3V325c0-8-1.5-14-4.4-18-2.9-4-7.3-6-13-6-3.1 0-6 .5-8.7 1.4-2.7.9-5.3 2.3-7.9 4.1-2.3 1.6-4.1 3.2-5.5 4.8-1.4 1.6-2.5 3.1-3.5 4.3v62.9c0 2.7.4 5 1.2 6.9.8 1.8 2.1 3.2 3.9 4.2 1.2.7 2.8 1.3 4.7 1.9 1.9.5 3.7.9 5.5 1.2v8.5h-71.2v-8.5c2-.2 3.9-.4 5.9-.6 2-.3 3.7-.6 5.1-1.1 2.5-.9 4.2-2.2 5.2-4 .9-1.8 1.4-4.1 1.4-7v-68.2c0-2.4-.6-4.8-1.9-7.1-1.2-2.3-2.9-4.3-4.9-5.7-1.4-.9-3.2-1.7-5.3-2.3-2.1-.6-4.5-1.1-7.1-1.3v-8.5l55.9-3 1.8 1.8v17h.5c2.2-2 4.8-4.3 8-7 3.1-2.7 6-5 8.7-6.7 2.9-1.9 6.7-3.5 11.4-4.8 4.7-1.3 9.7-2 15-2 12.7 0 22.3 3.6 28.6 10.8 6.4 7.2 9.5 16.8 9.5 28.8v57.4c0 2.9.4 5.2 1.3 6.9.9 1.7 2.5 3.1 4.8 4.1 1.2.5 2.8 1.1 4.6 1.6 1.8.5 3.9.9 6.3 1.2v8.1zm143.3-107.6c-3.5.5-6.9 1.9-10.2 4-3.3 2.1-6.1 5.4-8.3 9.8-6.7 14.2-13.6 29.3-20.7 45.4-7.1 16-15 33.4-23.7 52.1-4.8 10.5-9.5 18.8-14.1 25.1-4.5 6.2-8.8 11-12.8 14.4-3.7 3.1-7.5 5.4-11.1 6.8-3.7 1.4-7.4 2.1-11.1 2.1-7.4 0-13.4-2.1-18-6.2s-6.9-8.8-6.9-13.9c0-2.2.3-4.2.8-6.1.5-1.9 1.6-3.8 3.2-5.9 1.2-1.7 3.2-3.2 5.8-4.4 2.6-1.2 5.6-1.8 8.8-1.8 4.4 0 8.5 1.5 12.5 4.6 4 3 8.1 7.3 12.4 12.6 2.6-2.6 5.8-6.4 9.5-11.6 3.8-5.1 6.6-10.4 8.4-15.8-9.3-19.5-17.5-36.4-24.7-50.7-7.2-14.3-15.2-30.3-24.1-47.9-2-3.7-4.6-6.7-7.8-8.7-3.3-2.1-6.8-3.3-10.4-3.8V285h71.7v8.5c-2.6.1-5.7.7-9.2 1.8-3.5 1.1-5.2 2.5-5.2 4.2 0 .6.1 1.3.4 2 .2.7.7 1.8 1.3 3.2 2.7 5.5 6.4 13 11.3 22.7s10.5 21 17 34c4.8-11.1 8.9-20.6 12.3-28.6 3.4-8 6.7-15.8 9.9-23.5.8-1.9 1.2-3.5 1.3-4.6.1-1.1.2-1.9.2-2.3 0-1.4-.7-2.6-2-3.7-1.4-1.1-3-2-4.9-2.8-1.9-.8-3.8-1.4-5.6-1.8-1.8-.4-3.3-.7-4.4-.8V285h48.4v8.5z" style="fill:#fff"/><path d="M956.4 33.7c-24.7.1-48.3 2.2-69 5.9-61.2 10.8-72.3 33.4-72.3 75.1v55.1h144.5v18.4H760.9c-42 0-78.8 25.2-90.3 73.2-13.3 55-13.9 89.4 0 146.9 10.3 42.8 34.8 73.2 76.8 73.2h49.7v-66c0-47.7 41.3-89.8 90.3-89.8h144.3c40.2 0 72.3-33.1 72.3-73.4V114.7c0-39.2-33-68.6-72.3-75.1-24.8-4.2-50.6-6.1-75.3-5.9zM878.2 78c14.9 0 27.1 12.4 27.1 27.6 0 15.2-12.2 27.5-27.1 27.5-15 0-27.1-12.3-27.1-27.5S863.3 78 878.2 78zM1122 188.1v64.2c0 49.8-42.2 91.6-90.3 91.6H887.4c-39.5 0-72.3 33.8-72.3 73.4v137.6c0 39.2 34.1 62.2 72.3 73.4 45.7 13.5 89.6 15.9 144.3 0 36.4-10.5 72.3-31.7 72.3-73.4v-55.1H959.6v-18.4h216.6c42 0 57.7-29.3 72.3-73.2 15.1-45.3 14.4-88.8 0-146.9-10.4-41.8-30.2-73.2-72.3-73.2H1122zm-81.2 348.5c15 0 27.1 12.3 27.1 27.5s-12.1 27.6-27.1 27.6c-14.9 0-27.1-12.4-27.1-27.6 0-15.2 12.2-27.5 27.1-27.5z" style="opacity:.18;fill:#fff"/></svg>