<svg xmlns="http://www.w3.org/2000/svg" viewBox="0 0 1920 673" style="enable-background:new 0 0 1920 673" xml:space="preserve"><path style="fill:#e9e9e9" d="M0 0h1920v673H0z"/><defs><filter id="a" filterUnits="userSpaceOnUse" x="657.04" y="35.29" width="605.92" height="602.43"><feColorMatrix values="1 0 0 0 0 0 1 0 0 0 0 0 1 0 0 0 0 0 1 0"/></filter></defs><mask maskUnits="userSpaceOnUse" x="657.04" y="35.29" width="605.92" height="602.43" id="b"><path d="M1086.82 635.14a37.7 37.7 0 0 0 30.04-1.15L1241.53 574a37.864 37.864 0 0 0 21.43-34.11V133.12c0-14.55-8.33-27.8-21.43-34.11l-124.67-59.99c-14.44-6.95-31.69-4.01-43.02 7.33L835.17 264.09l-103.96-78.91c-9.68-7.35-23.22-6.75-32.2 1.43l-33.34 30.33c-10.99 10-11.01 27.3-.03 37.31l90.16 82.25-90.16 82.25c-10.98 10.02-10.97 27.31.03 37.31l33.35 30.33c8.99 8.18 22.52 8.78 32.2 1.43l103.96-78.92 238.67 217.74c3.68 3.72 8.1 6.6 12.97 8.5zm24.84-436.11L930.57 336.5l181.1 137.47c-.01 0-.01-274.94-.01-274.94z" style="fill-rule:evenodd;clip-rule:evenodd;fill:#fff;filter:url(#a)"/></mask><g style="mask:url(#b)"><path d="m1241.53 99.1-124.77-60.07c-14.44-6.95-31.7-4.02-43.04 7.31L665.27 418.75c-10.99 10.02-10.98 27.31.03 37.31l33.36 30.33c8.99 8.18 22.54 8.78 32.22 1.43l491.87-373.15c16.5-12.52 40.2-.75 40.2 19.96v-1.45c.01-14.52-8.32-27.77-21.42-34.08z" style="fill:#0065a9"/><path d="m1241.53 573.9-124.77 60.07c-14.44 6.95-31.7 4.02-43.04-7.31L665.27 254.25c-10.99-10.02-10.98-27.31.03-37.31l33.36-30.33c8.99-8.18 22.54-8.78 32.22-1.43l491.87 373.14c16.5 12.52 40.2.75 40.2-19.96v1.45c.01 14.53-8.32 27.78-21.42 34.09z" style="fill:#007acc"/><path d="M1116.77 633.98c-14.45 6.95-31.71 4.01-43.04-7.32 13.97 13.97 37.85 4.07 37.85-15.68V62.02c0-19.75-23.88-29.64-37.85-15.68 11.34-11.34 28.59-14.27 43.04-7.33l124.75 60a37.83 37.83 0 0 1 21.44 34.1v406.77c0 14.55-8.34 27.8-21.44 34.11l-124.75 59.99z" style="fill:#1f9cf0"/><linearGradient id="c" gradientUnits="userSpaceOnUse" x1="959.816" y1="638.71" x2="959.816" y2="36.286" gradientTransform="matrix(1 0 0 -1 0 674)"><stop offset="0" style="stop-color:#fff"/><stop offset="1" style="stop-color:#fff;stop-opacity:0"/></linearGradient><path d="M1086.45 635.14a37.7 37.7 0 0 0 30.04-1.15L1241.16 574a37.853 37.853 0 0 0 21.43-34.11V133.12c0-14.55-8.33-27.8-21.43-34.11l-124.67-59.99c-14.44-6.95-31.69-4.01-43.02 7.32L834.8 264.09l-103.96-78.91c-9.68-7.35-23.21-6.74-32.2 1.43l-33.34 30.33c-10.99 10-11.01 27.3-.03 37.31l90.16 82.25-90.16 82.25c-10.98 10.02-10.97 27.31.03 37.31l33.35 30.33c8.99 8.18 22.53 8.78 32.2 1.43l103.96-78.92 238.67 217.74c3.68 3.72 8.1 6.6 12.97 8.5zm24.85-436.11L930.2 336.5l181.1 137.47V199.03z" style="opacity:.25;fill-rule:evenodd;clip-rule:evenodd;fill:url(#c);enable-background:new"/></g></svg>