<svg xmlns="http://www.w3.org/2000/svg" viewBox="0 0 1920 673" style="enable-background:new 0 0 1920 673" xml:space="preserve"><path style="fill:#f7f7f7" d="M0 0h1920v673H0z"/><path d="M586.59 318.07c0 17.42-2.93 32.61-8.79 45.59-5.86 12.98-14.16 22.89-24.9 29.72s-23.28 10.25-37.6 10.25c-14 0-26.41-3.44-37.23-10.31-10.82-6.88-19.23-16.68-25.21-29.42-5.98-12.74-9.05-27.48-9.22-44.25v-12.82c0-17.09 2.97-32.18 8.91-45.29 5.94-13.1 14.34-23.13 25.21-30.09s23.29-10.44 37.29-10.44c14.24 0 26.79 3.44 37.66 10.31 10.86 6.88 19.23 16.85 25.09 29.91s8.79 28.26 8.79 45.59v11.25zm-23.32-11.48c0-21.08-4.23-37.25-12.7-48.52-8.46-11.27-20.31-16.91-35.52-16.91-14.81 0-26.47 5.64-34.97 16.91s-12.88 26.92-13.12 46.94v13.06c0 20.43 4.29 36.48 12.88 48.16 8.58 11.68 20.4 17.52 35.46 17.52 15.14 0 26.86-5.51 35.16-16.54 8.3-11.03 12.57-26.83 12.82-47.42v-13.2zm166.51 30.03c0 20.1-4.6 36.3-13.79 48.58-9.2 12.29-21.65 18.43-37.35 18.43-16.03 0-28.65-5.08-37.84-15.26v63.6h-22.6V269.12h20.63l1.1 14.65c9.2-11.39 21.97-17.09 38.33-17.09 15.87 0 28.42 5.98 37.66 17.94 9.24 11.96 13.85 28.61 13.85 49.93v2.07zm-22.59-2.56c0-14.89-3.17-26.65-9.52-35.28-6.35-8.62-15.06-12.94-26.12-12.94-13.67 0-23.93 6.06-30.76 18.19v63.11c6.75 12.04 17.09 18.07 31.01 18.07 10.82 0 19.43-4.29 25.82-12.88 6.38-8.59 9.57-21.34 9.57-38.27zm106.08 69.58c-17.9 0-32.47-5.88-43.7-17.64-11.23-11.76-16.85-27.49-16.85-47.18v-4.15c0-13.1 2.5-24.8 7.51-35.1 5.01-10.29 12-18.35 21-24.17 8.99-5.82 18.74-8.73 29.24-8.73 17.17 0 30.52 5.66 40.04 16.97 9.52 11.31 14.28 27.51 14.28 48.58v9.4h-89.48c.32 13.02 4.13 23.54 11.41 31.56s16.54 12.02 27.77 12.02c7.97 0 14.73-1.63 20.26-4.88 5.53-3.25 10.38-7.57 14.53-12.94l13.79 10.74c-11.06 17.02-27.66 25.52-49.8 25.52zm-2.81-118.41c-9.12 0-16.77 3.32-22.95 9.95-6.19 6.63-10.01 15.93-11.47 27.89h66.16v-1.71c-.65-11.47-3.74-20.36-9.28-26.67-5.53-6.3-13.02-9.46-22.46-9.46zm101.81-16.11.73 16.6c10.09-12.7 23.27-19.04 39.55-19.04 27.91 0 41.99 15.75 42.24 47.24v87.28h-22.58v-87.4c-.08-9.52-2.26-16.56-6.53-21.12-4.27-4.56-10.92-6.84-19.96-6.84-7.32 0-13.75 1.95-19.29 5.86-5.54 3.91-9.85 9.03-12.94 15.38v94.12h-22.58V269.12h21.36z" style="fill:#e87000"/><path d="M1095.99 223.46h42.72v121.95c0 11.31-2.62 21.4-7.87 30.27-5.25 8.87-12.57 15.75-21.97 20.63-9.4 4.88-19.88 7.32-31.43 7.32-19.37 0-34.42-4.88-45.17-14.65s-16.11-23.6-16.11-41.5h42.97c0 8.14 1.4 14.04 4.21 17.7s7.51 5.49 14.1 5.49c5.94 0 10.52-2.22 13.73-6.65 3.21-4.43 4.82-10.64 4.82-18.62V223.46zm69.7 177.74V223.46h57.25c15.71 0 29.83 3.56 42.36 10.68 12.53 7.12 22.32 17.17 29.36 30.15 7.04 12.98 10.6 27.53 10.68 43.64v8.18c0 16.28-3.44 30.86-10.31 43.76-6.88 12.9-16.56 22.99-29.05 30.27-12.49 7.28-26.43 10.97-41.81 11.05h-58.48zm42.85-144.66v111.69h14.89c12.29 0 21.73-4.37 28.32-13.12s9.89-21.75 9.89-39v-7.69c0-17.17-3.3-30.11-9.89-38.82-6.59-8.71-16.2-13.06-28.81-13.06h-14.4zm179.19 78.5-17.58 19.29v46.88h-42.85V223.46h42.85v78.37l14.89-22.58 38.33-55.79h52.98l-60.06 78.61 60.06 99.12h-50.78l-37.84-66.15z" style="fill:#5283a2"/></svg>